<mxfile host="Electron" agent="Mozilla/5.0 (Windows NT 10.0; Win64; x64) AppleWebKit/537.36 (KHTML, like Gecko) draw.io/28.1.2 Chrome/138.0.7204.243 Electron/37.4.0 Safari/537.36" version="28.1.2">
  <diagram name="第 1 页" id="1I7hhYu5JSRhCiXIuy0A">
    <mxGraphModel dx="574" dy="334" grid="1" gridSize="1" guides="1" tooltips="1" connect="1" arrows="1" fold="1" page="1" pageScale="1" pageWidth="1654" pageHeight="1169" math="1" shadow="0">
      <root>
        <mxCell id="0" />
        <mxCell id="1" parent="0" />
        <mxCell id="ud-DHqLhz_IXkj7XKrdy-262" value="" style="rounded=0;whiteSpace=wrap;html=1;align=center;verticalAlign=middle;fontFamily=YEFONTCaiHongTangTi;fontSize=12;fillColor=#dae8fc;strokeColor=#6c8ebf;opacity=80;" vertex="1" parent="1">
          <mxGeometry x="660" y="809" width="33" height="49" as="geometry" />
        </mxCell>
        <mxCell id="ud-DHqLhz_IXkj7XKrdy-240" value="" style="endArrow=none;html=1;rounded=0;fontFamily=YEFONTCaiHongTangTi;fontSize=12;fontColor=default;curved=1;fillColor=#f8cecc;strokeColor=#b85450;" edge="1" parent="1">
          <mxGeometry width="50" height="50" relative="1" as="geometry">
            <mxPoint x="673.687894736842" y="833.1833333333333" as="sourcePoint" />
            <mxPoint x="676.3194736842104" y="833.1833333333333" as="targetPoint" />
            <Array as="points">
              <mxPoint x="675.2114404432132" y="880.3666666666667" />
            </Array>
          </mxGeometry>
        </mxCell>
        <mxCell id="ud-DHqLhz_IXkj7XKrdy-260" value="" style="rounded=0;whiteSpace=wrap;html=1;align=center;verticalAlign=middle;fontFamily=YEFONTCaiHongTangTi;fontSize=12;fillColor=#dae8fc;strokeColor=#6c8ebf;opacity=80;" vertex="1" parent="1">
          <mxGeometry x="608" y="809" width="33" height="49" as="geometry" />
        </mxCell>
        <mxCell id="ud-DHqLhz_IXkj7XKrdy-6" value="" style="group" vertex="1" connectable="0" parent="1">
          <mxGeometry x="800" y="451.1091270347399" width="123.89087296526009" height="118.89087296526012" as="geometry" />
        </mxCell>
        <mxCell id="ud-DHqLhz_IXkj7XKrdy-1" value="" style="shape=xor;whiteSpace=wrap;html=1;rotation=135;fillColor=#dae8fc;strokeColor=#6c8ebf;movable=1;resizable=1;rotatable=1;deletable=1;editable=1;locked=0;connectable=1;container=0;sketch=1;curveFitting=1;jiggle=2;" vertex="1" parent="ud-DHqLhz_IXkj7XKrdy-6">
          <mxGeometry x="70" y="-1.1091270347398847" width="30" height="80" as="geometry" />
        </mxCell>
        <mxCell id="ud-DHqLhz_IXkj7XKrdy-2" value="" style="endArrow=none;html=1;rounded=0;entryX=1;entryY=0.5;entryDx=0;entryDy=0;entryPerimeter=0;movable=1;resizable=1;rotatable=1;deletable=1;editable=1;locked=0;connectable=1;fillColor=#dae8fc;strokeColor=#6c8ebf;sketch=1;curveFitting=1;jiggle=2;" edge="1" parent="ud-DHqLhz_IXkj7XKrdy-6" target="ud-DHqLhz_IXkj7XKrdy-1">
          <mxGeometry width="50" height="50" relative="1" as="geometry">
            <mxPoint x="60" y="108.89087296526012" as="sourcePoint" />
            <mxPoint x="70" y="48.890872965260115" as="targetPoint" />
          </mxGeometry>
        </mxCell>
        <mxCell id="ud-DHqLhz_IXkj7XKrdy-3" value="" style="rounded=0;whiteSpace=wrap;html=1;movable=1;resizable=1;rotatable=1;deletable=1;editable=1;locked=0;connectable=1;container=0;fillColor=#dae8fc;strokeColor=#6c8ebf;sketch=1;curveFitting=1;jiggle=2;" vertex="1" parent="ud-DHqLhz_IXkj7XKrdy-6">
          <mxGeometry y="108.89087296526012" width="120" height="10" as="geometry" />
        </mxCell>
        <mxCell id="ud-DHqLhz_IXkj7XKrdy-4" value="" style="endArrow=none;html=1;rounded=0;entryX=0.998;entryY=0.563;entryDx=0;entryDy=0;entryPerimeter=0;exitX=0.25;exitY=0;exitDx=0;exitDy=0;movable=1;resizable=1;rotatable=1;deletable=1;editable=1;locked=0;connectable=1;fillColor=#dae8fc;strokeColor=#6c8ebf;sketch=1;curveFitting=1;jiggle=2;" edge="1" parent="ud-DHqLhz_IXkj7XKrdy-6" source="ud-DHqLhz_IXkj7XKrdy-3" target="ud-DHqLhz_IXkj7XKrdy-1">
          <mxGeometry width="50" height="50" relative="1" as="geometry">
            <mxPoint x="20" y="98.89087296526012" as="sourcePoint" />
            <mxPoint x="70" y="48.890872965260115" as="targetPoint" />
          </mxGeometry>
        </mxCell>
        <mxCell id="ud-DHqLhz_IXkj7XKrdy-27" value="" style="group;" vertex="1" connectable="0" parent="1">
          <mxGeometry x="1016" y="360" width="56" height="38.89" as="geometry" />
        </mxCell>
        <mxCell id="ud-DHqLhz_IXkj7XKrdy-8" value="" style="ellipse;whiteSpace=wrap;html=1;fillColor=#d5e8d4;strokeColor=#82b366;" vertex="1" parent="ud-DHqLhz_IXkj7XKrdy-27">
          <mxGeometry y="16.204166666666666" width="13.37777777777778" height="6.4816666666666665" as="geometry" />
        </mxCell>
        <mxCell id="ud-DHqLhz_IXkj7XKrdy-9" value="" style="endArrow=none;html=1;rounded=0;fillColor=#d5e8d4;strokeColor=#82b366;" edge="1" parent="ud-DHqLhz_IXkj7XKrdy-27">
          <mxGeometry width="50" height="50" relative="1" as="geometry">
            <mxPoint x="24.888888888888896" y="16.204166666666666" as="sourcePoint" />
            <mxPoint x="31.111111111111118" y="3.2408333333333332" as="targetPoint" />
          </mxGeometry>
        </mxCell>
        <mxCell id="ud-DHqLhz_IXkj7XKrdy-11" value="" style="endArrow=none;html=1;rounded=0;fillColor=#d5e8d4;strokeColor=#82b366;" edge="1" parent="ud-DHqLhz_IXkj7XKrdy-27">
          <mxGeometry width="50" height="50" relative="1" as="geometry">
            <mxPoint x="31.111111111111118" y="3.2408333333333332" as="sourcePoint" />
            <mxPoint x="37.333333333333336" as="targetPoint" />
          </mxGeometry>
        </mxCell>
        <mxCell id="ud-DHqLhz_IXkj7XKrdy-12" value="" style="endArrow=none;html=1;rounded=0;fillColor=#d5e8d4;strokeColor=#82b366;" edge="1" parent="ud-DHqLhz_IXkj7XKrdy-27">
          <mxGeometry width="50" height="50" relative="1" as="geometry">
            <mxPoint x="31.111111111111118" y="16.204166666666666" as="sourcePoint" />
            <mxPoint x="37.333333333333336" as="targetPoint" />
          </mxGeometry>
        </mxCell>
        <mxCell id="ud-DHqLhz_IXkj7XKrdy-13" value="" style="endArrow=none;html=1;rounded=0;fillColor=#d5e8d4;strokeColor=#82b366;" edge="1" parent="ud-DHqLhz_IXkj7XKrdy-27">
          <mxGeometry width="50" height="50" relative="1" as="geometry">
            <mxPoint x="24.888888888888896" y="22.685833333333335" as="sourcePoint" />
            <mxPoint x="31.111111111111118" y="35.649166666666666" as="targetPoint" />
          </mxGeometry>
        </mxCell>
        <mxCell id="ud-DHqLhz_IXkj7XKrdy-14" value="" style="endArrow=none;html=1;rounded=0;fillColor=#d5e8d4;strokeColor=#82b366;" edge="1" parent="ud-DHqLhz_IXkj7XKrdy-27">
          <mxGeometry width="50" height="50" relative="1" as="geometry">
            <mxPoint x="31.111111111111118" y="35.649166666666666" as="sourcePoint" />
            <mxPoint x="37.333333333333336" y="38.89" as="targetPoint" />
          </mxGeometry>
        </mxCell>
        <mxCell id="ud-DHqLhz_IXkj7XKrdy-15" value="" style="endArrow=none;html=1;rounded=0;fillColor=#d5e8d4;strokeColor=#82b366;" edge="1" parent="ud-DHqLhz_IXkj7XKrdy-27">
          <mxGeometry width="50" height="50" relative="1" as="geometry">
            <mxPoint x="31.111111111111118" y="22.685833333333335" as="sourcePoint" />
            <mxPoint x="37.333333333333336" y="38.89" as="targetPoint" />
          </mxGeometry>
        </mxCell>
        <mxCell id="ud-DHqLhz_IXkj7XKrdy-16" value="" style="endArrow=none;html=1;rounded=0;fillColor=#d5e8d4;strokeColor=#82b366;" edge="1" parent="ud-DHqLhz_IXkj7XKrdy-27">
          <mxGeometry width="50" height="50" relative="1" as="geometry">
            <mxPoint x="31.111111111111118" y="16.204166666666666" as="sourcePoint" />
            <mxPoint x="43.55555555555557" y="16.204166666666666" as="targetPoint" />
          </mxGeometry>
        </mxCell>
        <mxCell id="ud-DHqLhz_IXkj7XKrdy-17" value="" style="endArrow=none;html=1;rounded=0;fillColor=#d5e8d4;strokeColor=#82b366;" edge="1" parent="ud-DHqLhz_IXkj7XKrdy-27">
          <mxGeometry width="50" height="50" relative="1" as="geometry">
            <mxPoint x="31.111111111111118" y="22.685833333333335" as="sourcePoint" />
            <mxPoint x="43.55555555555557" y="22.685833333333335" as="targetPoint" />
          </mxGeometry>
        </mxCell>
        <mxCell id="ud-DHqLhz_IXkj7XKrdy-18" value="" style="endArrow=none;html=1;rounded=0;exitX=0.5;exitY=0;exitDx=0;exitDy=0;fillColor=#d5e8d4;strokeColor=#82b366;" edge="1" parent="ud-DHqLhz_IXkj7XKrdy-27" source="ud-DHqLhz_IXkj7XKrdy-8">
          <mxGeometry width="50" height="50" relative="1" as="geometry">
            <mxPoint x="16.95555555555556" y="24.306250000000002" as="sourcePoint" />
            <mxPoint x="24.888888888888896" y="16.204166666666666" as="targetPoint" />
          </mxGeometry>
        </mxCell>
        <mxCell id="ud-DHqLhz_IXkj7XKrdy-19" value="" style="endArrow=none;html=1;rounded=0;exitX=0.5;exitY=0;exitDx=0;exitDy=0;fillColor=#d5e8d4;strokeColor=#82b366;" edge="1" parent="ud-DHqLhz_IXkj7XKrdy-27">
          <mxGeometry width="50" height="50" relative="1" as="geometry">
            <mxPoint x="6.68888888888889" y="22.685833333333335" as="sourcePoint" />
            <mxPoint x="24.888888888888896" y="22.685833333333335" as="targetPoint" />
          </mxGeometry>
        </mxCell>
        <mxCell id="ud-DHqLhz_IXkj7XKrdy-20" value="" style="endArrow=none;html=1;rounded=0;fillColor=#d5e8d4;strokeColor=#82b366;" edge="1" parent="ud-DHqLhz_IXkj7XKrdy-27">
          <mxGeometry width="50" height="50" relative="1" as="geometry">
            <mxPoint x="43.55555555555557" y="16.204166666666666" as="sourcePoint" />
            <mxPoint x="51.33333333333334" y="8.102083333333333" as="targetPoint" />
          </mxGeometry>
        </mxCell>
        <mxCell id="ud-DHqLhz_IXkj7XKrdy-21" value="" style="endArrow=none;html=1;rounded=0;fillColor=#d5e8d4;strokeColor=#82b366;" edge="1" parent="ud-DHqLhz_IXkj7XKrdy-27">
          <mxGeometry width="50" height="50" relative="1" as="geometry">
            <mxPoint x="43.55555555555557" y="22.685833333333335" as="sourcePoint" />
            <mxPoint x="51.33333333333334" y="30.787916666666668" as="targetPoint" />
          </mxGeometry>
        </mxCell>
        <mxCell id="ud-DHqLhz_IXkj7XKrdy-22" value="" style="endArrow=none;html=1;rounded=0;fillColor=#d5e8d4;strokeColor=#82b366;" edge="1" parent="ud-DHqLhz_IXkj7XKrdy-27">
          <mxGeometry width="50" height="50" relative="1" as="geometry">
            <mxPoint x="45.11111111111112" y="19.445" as="sourcePoint" />
            <mxPoint x="56" y="8.102083333333333" as="targetPoint" />
          </mxGeometry>
        </mxCell>
        <mxCell id="ud-DHqLhz_IXkj7XKrdy-23" value="" style="endArrow=none;html=1;rounded=0;fillColor=#d5e8d4;strokeColor=#82b366;" edge="1" parent="ud-DHqLhz_IXkj7XKrdy-27">
          <mxGeometry width="50" height="50" relative="1" as="geometry">
            <mxPoint x="45.11111111111112" y="19.445" as="sourcePoint" />
            <mxPoint x="56" y="30.787916666666668" as="targetPoint" />
          </mxGeometry>
        </mxCell>
        <mxCell id="ud-DHqLhz_IXkj7XKrdy-24" value="" style="endArrow=none;html=1;rounded=0;fillColor=#d5e8d4;strokeColor=#82b366;" edge="1" parent="ud-DHqLhz_IXkj7XKrdy-27">
          <mxGeometry width="50" height="50" relative="1" as="geometry">
            <mxPoint x="51.33333333333334" y="8.102083333333333" as="sourcePoint" />
            <mxPoint x="56" y="8.102083333333333" as="targetPoint" />
          </mxGeometry>
        </mxCell>
        <mxCell id="ud-DHqLhz_IXkj7XKrdy-25" value="" style="endArrow=none;html=1;rounded=0;fillColor=#d5e8d4;strokeColor=#82b366;" edge="1" parent="ud-DHqLhz_IXkj7XKrdy-27">
          <mxGeometry width="50" height="50" relative="1" as="geometry">
            <mxPoint x="51.33333333333334" y="30.787916666666668" as="sourcePoint" />
            <mxPoint x="56" y="30.787916666666668" as="targetPoint" />
          </mxGeometry>
        </mxCell>
        <mxCell id="ud-DHqLhz_IXkj7XKrdy-28" value="" style="endArrow=classic;html=1;rounded=0;fillColor=#f8cecc;strokeColor=#b85450;" edge="1" parent="1">
          <mxGeometry width="50" height="50" relative="1" as="geometry">
            <mxPoint x="910" y="470" as="sourcePoint" />
            <mxPoint x="1020" y="398.89" as="targetPoint" />
          </mxGeometry>
        </mxCell>
        <mxCell id="ud-DHqLhz_IXkj7XKrdy-29" value="" style="endArrow=classic;html=1;rounded=0;fillColor=#ffe6cc;strokeColor=#d79b00;" edge="1" parent="1">
          <mxGeometry width="50" height="50" relative="1" as="geometry">
            <mxPoint x="1030" y="410" as="sourcePoint" />
            <mxPoint x="920" y="480" as="targetPoint" />
          </mxGeometry>
        </mxCell>
        <mxCell id="ud-DHqLhz_IXkj7XKrdy-31" value="$$R_{max}=\left [\frac{{\color{Blue} P_t} {\color{Orange} G_t} {\color{Purple} G_r}\lambda ^2 {\color{Tan} \sigma}&amp;nbsp; }{(4\pi)^3 {\color{Red} S_{min}}}\right ] ^\frac{1}{4}&amp;nbsp;$$" style="text;html=1;align=center;verticalAlign=middle;whiteSpace=wrap;rounded=0;fillColor=#dae8fc;strokeColor=#6c8ebf;fontFamily=YEFONTCaiHongTangTi;" vertex="1" parent="1">
          <mxGeometry x="742" y="682" width="151" height="50" as="geometry" />
        </mxCell>
        <mxCell id="ud-DHqLhz_IXkj7XKrdy-32" value="天线" style="rounded=1;whiteSpace=wrap;html=1;fillColor=#fff2cc;strokeColor=#d6b656;fontFamily=YEFONTCaiHongTangTi;" vertex="1" parent="1">
          <mxGeometry x="906.95" y="530" width="90" height="20" as="geometry" />
        </mxCell>
        <mxCell id="ud-DHqLhz_IXkj7XKrdy-33" value="发射机" style="rounded=1;whiteSpace=wrap;html=1;fillColor=#fff2cc;strokeColor=#d6b656;fontFamily=YEFONTCaiHongTangTi;" vertex="1" parent="1">
          <mxGeometry x="745" y="323" width="90" height="20" as="geometry" />
        </mxCell>
        <mxCell id="ud-DHqLhz_IXkj7XKrdy-34" value="接收机" style="rounded=1;whiteSpace=wrap;html=1;fillColor=#fff2cc;strokeColor=#d6b656;fontFamily=YEFONTCaiHongTangTi;" vertex="1" parent="1">
          <mxGeometry x="940" y="490" width="90" height="20" as="geometry" />
        </mxCell>
        <mxCell id="ud-DHqLhz_IXkj7XKrdy-35" value="信号处理机" style="rounded=1;whiteSpace=wrap;html=1;fillColor=#fff2cc;strokeColor=#d6b656;fontFamily=YEFONTCaiHongTangTi;" vertex="1" parent="1">
          <mxGeometry x="816.95" y="600" width="90" height="20" as="geometry" />
        </mxCell>
        <mxCell id="ud-DHqLhz_IXkj7XKrdy-36" value="终端显示设备" style="rounded=1;whiteSpace=wrap;html=1;fillColor=#fff2cc;strokeColor=#d6b656;fontFamily=YEFONTCaiHongTangTi;" vertex="1" parent="1">
          <mxGeometry x="669.95" y="600" width="90" height="20" as="geometry" />
        </mxCell>
        <mxCell id="ud-DHqLhz_IXkj7XKrdy-37" value="伺服系统" style="rounded=1;whiteSpace=wrap;html=1;fillColor=#fff2cc;strokeColor=#d6b656;fontFamily=YEFONTCaiHongTangTi;" vertex="1" parent="1">
          <mxGeometry x="963.95" y="600" width="90" height="20" as="geometry" />
        </mxCell>
        <mxCell id="ud-DHqLhz_IXkj7XKrdy-38" value="发射射频信号" style="text;html=1;align=center;verticalAlign=middle;whiteSpace=wrap;rounded=1;fontFamily=YEFONTCaiHongTangTi;fontSize=12;fillColor=#b1ddf0;strokeColor=none;glass=0;sketch=1;curveFitting=1;jiggle=2;" vertex="1" parent="1">
          <mxGeometry x="115" y="110" width="24" height="194" as="geometry" />
        </mxCell>
        <mxCell id="ud-DHqLhz_IXkj7XKrdy-39" value="连续信号：单一频率余弦波" style="text;html=1;align=left;verticalAlign=middle;whiteSpace=wrap;rounded=0;fontFamily=YEFONTCaiHongTangTi;fontSize=12;fontColor=default;" vertex="1" parent="1">
          <mxGeometry x="197" y="112" width="160" height="20" as="geometry" />
        </mxCell>
        <mxCell id="ud-DHqLhz_IXkj7XKrdy-40" value="脉冲信号：脉冲序列" style="text;html=1;align=left;verticalAlign=middle;whiteSpace=wrap;rounded=0;fontFamily=YEFONTCaiHongTangTi;fontSize=12;fontColor=default;" vertex="1" parent="1">
          <mxGeometry x="197" y="132" width="160" height="20" as="geometry" />
        </mxCell>
        <mxCell id="ud-DHqLhz_IXkj7XKrdy-41" value="" style="shape=curlyBracket;whiteSpace=wrap;html=1;rounded=1;labelPosition=left;verticalLabelPosition=middle;align=right;verticalAlign=middle;fontFamily=YEFONTCaiHongTangTi;fontSize=12;fontColor=default;fillColor=none;gradientColor=none;" vertex="1" parent="1">
          <mxGeometry x="177" y="117" width="20" height="30" as="geometry" />
        </mxCell>
        <mxCell id="ud-DHqLhz_IXkj7XKrdy-43" value="固定频率：载波频率不变" style="text;html=1;align=left;verticalAlign=middle;whiteSpace=wrap;rounded=0;fontFamily=YEFONTCaiHongTangTi;fontSize=12;fontColor=default;" vertex="1" parent="1">
          <mxGeometry x="198" y="152" width="160" height="20" as="geometry" />
        </mxCell>
        <mxCell id="ud-DHqLhz_IXkj7XKrdy-44" value="频率分级：频率跳变" style="text;html=1;align=left;verticalAlign=middle;whiteSpace=wrap;rounded=0;fontFamily=YEFONTCaiHongTangTi;fontSize=12;fontColor=default;" vertex="1" parent="1">
          <mxGeometry x="197" y="172" width="160" height="20" as="geometry" />
        </mxCell>
        <mxCell id="ud-DHqLhz_IXkj7XKrdy-45" value="频率编码：用频率组合进行编码" style="text;html=1;align=left;verticalAlign=middle;whiteSpace=wrap;rounded=0;fontFamily=YEFONTCaiHongTangTi;fontSize=12;fontColor=default;" vertex="1" parent="1">
          <mxGeometry x="197" y="192" width="171" height="20" as="geometry" />
        </mxCell>
        <mxCell id="ud-DHqLhz_IXkj7XKrdy-46" value="线性调频：频率随时间线性变化" style="text;html=1;align=left;verticalAlign=middle;whiteSpace=wrap;rounded=0;fontFamily=YEFONTCaiHongTangTi;fontSize=12;fontColor=default;" vertex="1" parent="1">
          <mxGeometry x="198" y="212" width="171" height="20" as="geometry" />
        </mxCell>
        <mxCell id="ud-DHqLhz_IXkj7XKrdy-47" value="频率捷变：频率快速变换" style="text;html=1;align=left;verticalAlign=middle;whiteSpace=wrap;rounded=0;fontFamily=YEFONTCaiHongTangTi;fontSize=12;fontColor=default;" vertex="1" parent="1">
          <mxGeometry x="198" y="232" width="160" height="20" as="geometry" />
        </mxCell>
        <mxCell id="ud-DHqLhz_IXkj7XKrdy-48" value="随机相位：每个脉冲的相位不相参" style="text;html=1;align=left;verticalAlign=middle;whiteSpace=wrap;rounded=0;fontFamily=YEFONTCaiHongTangTi;fontSize=12;fontColor=default;" vertex="1" parent="1">
          <mxGeometry x="198" y="252" width="185" height="20" as="geometry" />
        </mxCell>
        <mxCell id="ud-DHqLhz_IXkj7XKrdy-49" value="相位相参：知道一个脉冲可以推&amp;nbsp; &amp;nbsp; &amp;nbsp; &amp;nbsp; &amp;nbsp; &amp;nbsp; &amp;nbsp; 断出其他脉冲的相位" style="text;html=1;align=left;verticalAlign=middle;whiteSpace=wrap;rounded=0;fontFamily=YEFONTCaiHongTangTi;fontSize=12;fontColor=default;" vertex="1" parent="1">
          <mxGeometry x="198" y="273.11" width="177" height="20" as="geometry" />
        </mxCell>
        <mxCell id="ud-DHqLhz_IXkj7XKrdy-50" value="相位编码：用离散相位变换表示信息" style="text;html=1;align=left;verticalAlign=middle;whiteSpace=wrap;rounded=0;fontFamily=YEFONTCaiHongTangTi;fontSize=12;fontColor=default;" vertex="1" parent="1">
          <mxGeometry x="198" y="293.11" width="195" height="20" as="geometry" />
        </mxCell>
        <mxCell id="ud-DHqLhz_IXkj7XKrdy-51" value="" style="shape=curlyBracket;whiteSpace=wrap;html=1;rounded=1;labelPosition=left;verticalLabelPosition=middle;align=right;verticalAlign=middle;fontFamily=YEFONTCaiHongTangTi;fontSize=12;fontColor=default;fillColor=none;gradientColor=none;" vertex="1" parent="1">
          <mxGeometry x="177" y="156" width="20" height="89" as="geometry" />
        </mxCell>
        <mxCell id="ud-DHqLhz_IXkj7XKrdy-52" value="" style="shape=curlyBracket;whiteSpace=wrap;html=1;rounded=1;labelPosition=left;verticalLabelPosition=middle;align=right;verticalAlign=middle;fontFamily=YEFONTCaiHongTangTi;fontSize=12;fontColor=default;fillColor=none;gradientColor=none;" vertex="1" parent="1">
          <mxGeometry x="178" y="258.11" width="20" height="50" as="geometry" />
        </mxCell>
        <mxCell id="ud-DHqLhz_IXkj7XKrdy-53" value="&lt;font style=&quot;color: rgb(0, 153, 0);&quot;&gt;幅度&lt;/font&gt;" style="text;html=1;align=center;verticalAlign=middle;whiteSpace=wrap;rounded=0;fontFamily=YEFONTCaiHongTangTi;fontSize=12;fontColor=default;" vertex="1" parent="1">
          <mxGeometry x="134" y="118" width="60" height="30" as="geometry" />
        </mxCell>
        <mxCell id="ud-DHqLhz_IXkj7XKrdy-54" value="&lt;font style=&quot;color: rgb(255, 128, 0);&quot;&gt;频率&lt;/font&gt;" style="text;html=1;align=center;verticalAlign=middle;whiteSpace=wrap;rounded=0;fontFamily=YEFONTCaiHongTangTi;fontSize=12;fontColor=default;" vertex="1" parent="1">
          <mxGeometry x="136" y="185.5" width="60" height="30" as="geometry" />
        </mxCell>
        <mxCell id="ud-DHqLhz_IXkj7XKrdy-55" value="&lt;font style=&quot;color: rgb(0, 127, 255);&quot;&gt;相位&lt;/font&gt;" style="text;html=1;align=center;verticalAlign=middle;whiteSpace=wrap;rounded=0;fontFamily=YEFONTCaiHongTangTi;fontSize=12;fontColor=default;" vertex="1" parent="1">
          <mxGeometry x="135" y="269" width="60" height="30" as="geometry" />
        </mxCell>
        <mxCell id="ud-DHqLhz_IXkj7XKrdy-56" value="&lt;font style=&quot;color: rgb(102, 102, 255);&quot;&gt;单极震荡式&lt;/font&gt;" style="rounded=1;whiteSpace=wrap;html=1;align=center;verticalAlign=middle;fontFamily=YEFONTCaiHongTangTi;fontSize=12;fillColor=none;strokeColor=none;" vertex="1" parent="1">
          <mxGeometry x="148" y="322" width="81" height="36" as="geometry" />
        </mxCell>
        <mxCell id="ud-DHqLhz_IXkj7XKrdy-59" value="&lt;div&gt;&lt;font style=&quot;color: rgb(255, 51, 51);&quot;&gt;关键点&lt;/font&gt;：大功率射频信号与调制同时完成。&lt;/div&gt;&lt;div&gt;&lt;font style=&quot;color: rgb(0, 153, 0);&quot;&gt;特点：&lt;/font&gt;相位不相参。&lt;/div&gt;" style="text;html=1;align=left;verticalAlign=middle;whiteSpace=wrap;rounded=0;fontFamily=YEFONTCaiHongTangTi;fontSize=12;fontColor=default;" vertex="1" parent="1">
          <mxGeometry x="233" y="326" width="232" height="30" as="geometry" />
        </mxCell>
        <mxCell id="ud-DHqLhz_IXkj7XKrdy-60" value="&lt;div&gt;&lt;font style=&quot;color: rgb(255, 51, 51);&quot;&gt;关键点&lt;/font&gt;：先产生小功率连续波信号，再分级进行调制和放大。&lt;/div&gt;&lt;div&gt;&lt;font style=&quot;color: rgb(0, 153, 0);&quot;&gt;特点：&lt;/font&gt;相位相参。&lt;/div&gt;" style="text;html=1;align=left;verticalAlign=middle;whiteSpace=wrap;rounded=0;fontFamily=YEFONTCaiHongTangTi;fontSize=12;fontColor=default;" vertex="1" parent="1">
          <mxGeometry x="232" y="371.5" width="330" height="30" as="geometry" />
        </mxCell>
        <mxCell id="ud-DHqLhz_IXkj7XKrdy-62" value="发射机组成" style="text;html=1;align=center;verticalAlign=middle;whiteSpace=wrap;rounded=1;fontFamily=YEFONTCaiHongTangTi;fontSize=12;fillColor=#b1ddf0;strokeColor=none;glass=0;sketch=1;curveFitting=1;jiggle=2;" vertex="1" parent="1">
          <mxGeometry x="115" y="323" width="24" height="82" as="geometry" />
        </mxCell>
        <mxCell id="ud-DHqLhz_IXkj7XKrdy-63" value="&lt;span&gt;&lt;font style=&quot;color: rgb(153, 51, 255);&quot;&gt;主振放大式&lt;/font&gt;&lt;/span&gt;" style="rounded=1;whiteSpace=wrap;html=1;align=center;verticalAlign=middle;fontFamily=YEFONTCaiHongTangTi;fontSize=12;fillColor=none;strokeColor=none;" vertex="1" parent="1">
          <mxGeometry x="148" y="369" width="81" height="36" as="geometry" />
        </mxCell>
        <mxCell id="ud-DHqLhz_IXkj7XKrdy-64" value="主要指标" style="text;html=1;align=center;verticalAlign=middle;whiteSpace=wrap;rounded=1;fontFamily=YEFONTCaiHongTangTi;fontSize=12;fillColor=#b1ddf0;strokeColor=none;glass=0;sketch=1;curveFitting=1;jiggle=2;" vertex="1" parent="1">
          <mxGeometry x="111" y="414" width="34" height="41" as="geometry" />
        </mxCell>
        <mxCell id="ud-DHqLhz_IXkj7XKrdy-67" value="" style="shape=curlyBracket;whiteSpace=wrap;html=1;rounded=1;labelPosition=left;verticalLabelPosition=middle;align=right;verticalAlign=middle;fontFamily=YEFONTCaiHongTangTi;fontSize=12;fontColor=default;fillColor=none;gradientColor=none;" vertex="1" parent="1">
          <mxGeometry x="223" y="329" width="8" height="25" as="geometry" />
        </mxCell>
        <mxCell id="ud-DHqLhz_IXkj7XKrdy-68" value="" style="shape=curlyBracket;whiteSpace=wrap;html=1;rounded=1;labelPosition=left;verticalLabelPosition=middle;align=right;verticalAlign=middle;fontFamily=YEFONTCaiHongTangTi;fontSize=12;fontColor=default;fillColor=none;gradientColor=none;" vertex="1" parent="1">
          <mxGeometry x="223" y="374" width="8" height="25" as="geometry" />
        </mxCell>
        <mxCell id="ud-DHqLhz_IXkj7XKrdy-72" value="频率与器件：射频器的物理特性决定了可以发射频率的范围" style="text;html=1;align=left;verticalAlign=middle;whiteSpace=wrap;rounded=0;fontFamily=YEFONTCaiHongTangTi;fontSize=12;fontColor=default;" vertex="1" parent="1">
          <mxGeometry x="158" y="416" width="328" height="20" as="geometry" />
        </mxCell>
        <mxCell id="ud-DHqLhz_IXkj7XKrdy-73" value="频率与功率：不同频段的功率是不同的" style="text;html=1;align=left;verticalAlign=middle;whiteSpace=wrap;rounded=0;fontFamily=YEFONTCaiHongTangTi;fontSize=12;fontColor=default;" vertex="1" parent="1">
          <mxGeometry x="158" y="436" width="317" height="20" as="geometry" />
        </mxCell>
        <mxCell id="ud-DHqLhz_IXkj7XKrdy-74" value="脉冲调制器" style="text;html=1;align=center;verticalAlign=middle;whiteSpace=wrap;rounded=1;fontFamily=YEFONTCaiHongTangTi;fontSize=12;fillColor=#b1ddf0;strokeColor=none;glass=0;sketch=1;curveFitting=1;jiggle=2;" vertex="1" parent="1">
          <mxGeometry x="115" y="476" width="22" height="96" as="geometry" />
        </mxCell>
        <mxCell id="ud-DHqLhz_IXkj7XKrdy-75" value="&lt;font style=&quot;color: rgb(102, 102, 255);&quot;&gt;刚性开关&lt;/font&gt;" style="rounded=1;whiteSpace=wrap;html=1;align=center;verticalAlign=middle;fontFamily=YEFONTCaiHongTangTi;fontSize=12;fillColor=none;strokeColor=none;" vertex="1" parent="1">
          <mxGeometry x="156" y="523.5" width="52" height="15" as="geometry" />
        </mxCell>
        <mxCell id="ud-DHqLhz_IXkj7XKrdy-76" value="&lt;font style=&quot;color: rgb(102, 102, 255);&quot;&gt;柔性开关&lt;/font&gt;" style="rounded=1;whiteSpace=wrap;html=1;align=center;verticalAlign=middle;fontFamily=YEFONTCaiHongTangTi;fontSize=12;fillColor=none;strokeColor=none;" vertex="1" parent="1">
          <mxGeometry x="153" y="552" width="52" height="15" as="geometry" />
        </mxCell>
        <mxCell id="ud-DHqLhz_IXkj7XKrdy-77" value="可以控制脉冲的上下沿" style="text;html=1;align=left;verticalAlign=middle;whiteSpace=wrap;rounded=0;fontFamily=YEFONTCaiHongTangTi;fontSize=12;fontColor=default;" vertex="1" parent="1">
          <mxGeometry x="208" y="521" width="150" height="20" as="geometry" />
        </mxCell>
        <mxCell id="ud-DHqLhz_IXkj7XKrdy-78" value="只可以控制脉冲的上升沿，下降沿需要等待器件放电完全" style="text;html=1;align=left;verticalAlign=middle;whiteSpace=wrap;rounded=0;fontFamily=YEFONTCaiHongTangTi;fontSize=12;fontColor=default;" vertex="1" parent="1">
          <mxGeometry x="207.95000000000005" y="551" width="305" height="20" as="geometry" />
        </mxCell>
        <mxCell id="ud-DHqLhz_IXkj7XKrdy-80" value="超外差接收机" style="text;html=1;align=center;verticalAlign=middle;whiteSpace=wrap;rounded=1;fontFamily=YEFONTCaiHongTangTi;fontSize=12;fillColor=#b1ddf0;strokeColor=none;glass=0;sketch=1;curveFitting=1;jiggle=2;" vertex="1" parent="1">
          <mxGeometry x="129" y="659" width="22" height="153" as="geometry" />
        </mxCell>
        <mxCell id="ud-DHqLhz_IXkj7XKrdy-86" style="edgeStyle=orthogonalEdgeStyle;rounded=0;orthogonalLoop=1;jettySize=auto;html=1;entryX=0.5;entryY=0;entryDx=0;entryDy=0;fontFamily=YEFONTCaiHongTangTi;fontSize=12;fontColor=default;" edge="1" parent="1" source="ud-DHqLhz_IXkj7XKrdy-82" target="ud-DHqLhz_IXkj7XKrdy-83">
          <mxGeometry relative="1" as="geometry" />
        </mxCell>
        <mxCell id="ud-DHqLhz_IXkj7XKrdy-82" value="&lt;font style=&quot;color: rgb(102, 102, 255);&quot;&gt;高频部分&lt;/font&gt;" style="rounded=1;whiteSpace=wrap;html=1;align=center;verticalAlign=middle;fontFamily=YEFONTCaiHongTangTi;fontSize=12;fillColor=#dae8fc;strokeColor=#6c8ebf;" vertex="1" parent="1">
          <mxGeometry x="173" y="699" width="60" height="15" as="geometry" />
        </mxCell>
        <mxCell id="ud-DHqLhz_IXkj7XKrdy-87" style="edgeStyle=orthogonalEdgeStyle;rounded=0;orthogonalLoop=1;jettySize=auto;html=1;entryX=0.5;entryY=0;entryDx=0;entryDy=0;fontFamily=YEFONTCaiHongTangTi;fontSize=12;fontColor=default;" edge="1" parent="1" source="ud-DHqLhz_IXkj7XKrdy-83" target="ud-DHqLhz_IXkj7XKrdy-84">
          <mxGeometry relative="1" as="geometry" />
        </mxCell>
        <mxCell id="ud-DHqLhz_IXkj7XKrdy-83" value="&lt;font style=&quot;color: rgb(102, 102, 255);&quot;&gt;中频部分&lt;/font&gt;" style="rounded=1;whiteSpace=wrap;html=1;align=center;verticalAlign=middle;fontFamily=YEFONTCaiHongTangTi;fontSize=12;fillColor=#dae8fc;strokeColor=#6c8ebf;" vertex="1" parent="1">
          <mxGeometry x="173" y="759" width="60" height="15" as="geometry" />
        </mxCell>
        <mxCell id="ud-DHqLhz_IXkj7XKrdy-84" value="&lt;font style=&quot;color: rgb(102, 102, 255);&quot;&gt;视频部分&lt;/font&gt;" style="rounded=1;whiteSpace=wrap;html=1;align=center;verticalAlign=middle;fontFamily=YEFONTCaiHongTangTi;fontSize=12;fillColor=#dae8fc;strokeColor=#6c8ebf;" vertex="1" parent="1">
          <mxGeometry x="173" y="819" width="60" height="15" as="geometry" />
        </mxCell>
        <mxCell id="ud-DHqLhz_IXkj7XKrdy-85" style="edgeStyle=orthogonalEdgeStyle;rounded=0;orthogonalLoop=1;jettySize=auto;html=1;exitX=0.5;exitY=1;exitDx=0;exitDy=0;fontFamily=YEFONTCaiHongTangTi;fontSize=12;fontColor=default;fillColor=#dae8fc;strokeColor=#6c8ebf;" edge="1" parent="1" source="ud-DHqLhz_IXkj7XKrdy-83" target="ud-DHqLhz_IXkj7XKrdy-83">
          <mxGeometry relative="1" as="geometry" />
        </mxCell>
        <mxCell id="ud-DHqLhz_IXkj7XKrdy-89" value="$$f_R$$" style="text;html=1;align=center;verticalAlign=middle;whiteSpace=wrap;rounded=0;fontFamily=YEFONTCaiHongTangTi;fontSize=12;fontColor=default;" vertex="1" parent="1">
          <mxGeometry x="277" y="637" width="60" height="30" as="geometry" />
        </mxCell>
        <mxCell id="ud-DHqLhz_IXkj7XKrdy-90" value="" style="ellipse;whiteSpace=wrap;html=1;aspect=fixed;rounded=0;align=center;verticalAlign=middle;fontFamily=YEFONTCaiHongTangTi;fontSize=12;fillColor=#e1d5e7;strokeColor=#9673a6;" vertex="1" parent="1">
          <mxGeometry x="293.5" y="695" width="23" height="23" as="geometry" />
        </mxCell>
        <mxCell id="ud-DHqLhz_IXkj7XKrdy-91" value="" style="endArrow=none;html=1;rounded=0;fontFamily=YEFONTCaiHongTangTi;fontSize=12;fontColor=default;entryX=1;entryY=0;entryDx=0;entryDy=0;fillColor=#e1d5e7;strokeColor=#9673a6;" edge="1" parent="1" target="ud-DHqLhz_IXkj7XKrdy-90">
          <mxGeometry width="50" height="50" relative="1" as="geometry">
            <mxPoint x="298" y="716" as="sourcePoint" />
            <mxPoint x="319" y="695" as="targetPoint" />
          </mxGeometry>
        </mxCell>
        <mxCell id="ud-DHqLhz_IXkj7XKrdy-92" value="" style="endArrow=none;html=1;rounded=0;fontFamily=YEFONTCaiHongTangTi;fontSize=12;fontColor=default;exitX=0;exitY=0;exitDx=0;exitDy=0;entryX=1;entryY=1;entryDx=0;entryDy=0;fillColor=#e1d5e7;strokeColor=#9673a6;" edge="1" parent="1" source="ud-DHqLhz_IXkj7XKrdy-90" target="ud-DHqLhz_IXkj7XKrdy-90">
          <mxGeometry width="50" height="50" relative="1" as="geometry">
            <mxPoint x="293" y="734" as="sourcePoint" />
            <mxPoint x="315" y="712" as="targetPoint" />
          </mxGeometry>
        </mxCell>
        <mxCell id="ud-DHqLhz_IXkj7XKrdy-94" value="" style="endArrow=classic;html=1;rounded=0;fontFamily=YEFONTCaiHongTangTi;fontSize=12;fontColor=default;" edge="1" parent="1">
          <mxGeometry width="50" height="50" relative="1" as="geometry">
            <mxPoint x="304.93" y="660" as="sourcePoint" />
            <mxPoint x="304.93" y="695" as="targetPoint" />
          </mxGeometry>
        </mxCell>
        <mxCell id="ud-DHqLhz_IXkj7XKrdy-95" value="" style="endArrow=classic;html=1;rounded=0;fontFamily=YEFONTCaiHongTangTi;fontSize=12;fontColor=default;entryX=1;entryY=0.5;entryDx=0;entryDy=0;" edge="1" parent="1">
          <mxGeometry width="50" height="50" relative="1" as="geometry">
            <mxPoint x="358" y="707" as="sourcePoint" />
            <mxPoint x="316.4999999999997" y="706.75" as="targetPoint" />
          </mxGeometry>
        </mxCell>
        <mxCell id="ud-DHqLhz_IXkj7XKrdy-96" value="$$f_I$$" style="text;html=1;align=center;verticalAlign=middle;whiteSpace=wrap;rounded=0;fontFamily=YEFONTCaiHongTangTi;fontSize=12;fontColor=default;" vertex="1" parent="1">
          <mxGeometry x="334" y="690" width="60" height="30" as="geometry" />
        </mxCell>
        <mxCell id="ud-DHqLhz_IXkj7XKrdy-97" value="中频放大器" style="rounded=1;whiteSpace=wrap;html=1;align=center;verticalAlign=middle;fontFamily=YEFONTCaiHongTangTi;fontSize=12;fillColor=#e1d5e7;strokeColor=#9673a6;" vertex="1" parent="1">
          <mxGeometry x="267.5" y="747" width="75" height="34" as="geometry" />
        </mxCell>
        <mxCell id="ud-DHqLhz_IXkj7XKrdy-98" value="" style="endArrow=classic;html=1;rounded=0;fontFamily=YEFONTCaiHongTangTi;fontSize=12;fontColor=default;exitX=0.5;exitY=1;exitDx=0;exitDy=0;entryX=0.5;entryY=0;entryDx=0;entryDy=0;" edge="1" parent="1" source="ud-DHqLhz_IXkj7XKrdy-90" target="ud-DHqLhz_IXkj7XKrdy-97">
          <mxGeometry width="50" height="50" relative="1" as="geometry">
            <mxPoint x="263" y="723" as="sourcePoint" />
            <mxPoint x="313" y="673" as="targetPoint" />
          </mxGeometry>
        </mxCell>
        <mxCell id="ud-DHqLhz_IXkj7XKrdy-100" value="包络检波器" style="rounded=1;whiteSpace=wrap;html=1;align=center;verticalAlign=middle;fontFamily=YEFONTCaiHongTangTi;fontSize=12;fillColor=#e1d5e7;strokeColor=#9673a6;" vertex="1" parent="1">
          <mxGeometry x="267.5" y="806" width="75" height="34" as="geometry" />
        </mxCell>
        <mxCell id="ud-DHqLhz_IXkj7XKrdy-141" value="" style="group;movable=1;resizable=1;rotatable=1;deletable=1;editable=1;locked=0;connectable=1;" vertex="1" connectable="0" parent="1">
          <mxGeometry x="321" y="620.5656666666666" width="40" height="56.36766666666668" as="geometry" />
        </mxCell>
        <mxCell id="ud-DHqLhz_IXkj7XKrdy-101" value="" style="endArrow=classic;html=1;rounded=0;fontFamily=YEFONTCaiHongTangTi;fontSize=12;fontColor=default;movable=1;resizable=1;rotatable=1;deletable=1;editable=1;locked=0;connectable=1;" edge="1" parent="ud-DHqLhz_IXkj7XKrdy-141">
          <mxGeometry width="50" height="50" relative="1" as="geometry">
            <mxPoint y="32.93433333333335" as="sourcePoint" />
            <mxPoint x="40" y="32.93433333333335" as="targetPoint" />
          </mxGeometry>
        </mxCell>
        <mxCell id="ud-DHqLhz_IXkj7XKrdy-102" value="" style="endArrow=classic;html=1;rounded=0;fontFamily=YEFONTCaiHongTangTi;fontSize=12;fontColor=default;movable=1;resizable=1;rotatable=1;deletable=1;editable=1;locked=0;connectable=1;" edge="1" parent="ud-DHqLhz_IXkj7XKrdy-141">
          <mxGeometry width="50" height="50" relative="1" as="geometry">
            <mxPoint x="2.1052631578947367" y="56.36766666666668" as="sourcePoint" />
            <mxPoint x="2.1052631578947367" as="targetPoint" />
          </mxGeometry>
        </mxCell>
        <mxCell id="ud-DHqLhz_IXkj7XKrdy-103" value="" style="endArrow=none;html=1;rounded=0;fontFamily=YEFONTCaiHongTangTi;fontSize=12;fontColor=default;curved=1;fillColor=#f8cecc;strokeColor=#b85450;" edge="1" parent="1">
          <mxGeometry width="50" height="50" relative="1" as="geometry">
            <mxPoint x="323.10526315789474" y="653.8166666666667" as="sourcePoint" />
            <mxPoint x="325.7368421052632" y="653.8166666666667" as="targetPoint" />
            <Array as="points">
              <mxPoint x="324.6288088642659" y="606.6333333333333" />
            </Array>
          </mxGeometry>
        </mxCell>
        <mxCell id="ud-DHqLhz_IXkj7XKrdy-104" value="" style="endArrow=none;html=1;rounded=0;fontFamily=YEFONTCaiHongTangTi;fontSize=12;fontColor=default;curved=1;fillColor=#f8cecc;strokeColor=#b85450;" edge="1" parent="1">
          <mxGeometry width="50" height="50" relative="1" as="geometry">
            <mxPoint x="325.7368421052632" y="653.8166666666666" as="sourcePoint" />
            <mxPoint x="328.36842105263156" y="653.8166666666666" as="targetPoint" />
            <Array as="points">
              <mxPoint x="327.26038781163436" y="701" />
            </Array>
          </mxGeometry>
        </mxCell>
        <mxCell id="ud-DHqLhz_IXkj7XKrdy-107" value="" style="endArrow=none;html=1;rounded=0;fontFamily=YEFONTCaiHongTangTi;fontSize=12;fontColor=default;curved=1;fillColor=#f8cecc;strokeColor=#b85450;" edge="1" parent="1">
          <mxGeometry width="50" height="50" relative="1" as="geometry">
            <mxPoint x="328.36842105263156" y="653.1833333333334" as="sourcePoint" />
            <mxPoint x="331" y="653.1833333333334" as="targetPoint" />
            <Array as="points">
              <mxPoint x="329.89196675900274" y="606" />
            </Array>
          </mxGeometry>
        </mxCell>
        <mxCell id="ud-DHqLhz_IXkj7XKrdy-108" value="" style="endArrow=none;html=1;rounded=0;fontFamily=YEFONTCaiHongTangTi;fontSize=12;fontColor=default;curved=1;fillColor=#f8cecc;strokeColor=#b85450;" edge="1" parent="1">
          <mxGeometry width="50" height="50" relative="1" as="geometry">
            <mxPoint x="331" y="653.1833333333333" as="sourcePoint" />
            <mxPoint x="333.6315789473684" y="653.1833333333333" as="targetPoint" />
            <Array as="points">
              <mxPoint x="332.5235457063712" y="700.3666666666667" />
            </Array>
          </mxGeometry>
        </mxCell>
        <mxCell id="ud-DHqLhz_IXkj7XKrdy-110" value="" style="endArrow=none;html=1;rounded=0;fontFamily=YEFONTCaiHongTangTi;fontSize=12;fontColor=default;curved=1;fillColor=#f8cecc;strokeColor=#b85450;" edge="1" parent="1">
          <mxGeometry width="50" height="50" relative="1" as="geometry">
            <mxPoint x="333.63157894736844" y="653.1833333333334" as="sourcePoint" />
            <mxPoint x="336.2631578947369" y="653.1833333333334" as="targetPoint" />
            <Array as="points">
              <mxPoint x="335.1551246537396" y="606" />
            </Array>
          </mxGeometry>
        </mxCell>
        <mxCell id="ud-DHqLhz_IXkj7XKrdy-111" value="" style="endArrow=none;html=1;rounded=0;fontFamily=YEFONTCaiHongTangTi;fontSize=12;fontColor=default;curved=1;fillColor=#f8cecc;strokeColor=#b85450;" edge="1" parent="1">
          <mxGeometry width="50" height="50" relative="1" as="geometry">
            <mxPoint x="336.2631578947369" y="653.1833333333333" as="sourcePoint" />
            <mxPoint x="338.89473684210526" y="653.1833333333333" as="targetPoint" />
            <Array as="points">
              <mxPoint x="337.78670360110806" y="700.3666666666667" />
            </Array>
          </mxGeometry>
        </mxCell>
        <mxCell id="ud-DHqLhz_IXkj7XKrdy-113" value="" style="endArrow=none;html=1;rounded=0;fontFamily=YEFONTCaiHongTangTi;fontSize=12;fontColor=default;curved=1;fillColor=#f8cecc;strokeColor=#b85450;" edge="1" parent="1">
          <mxGeometry width="50" height="50" relative="1" as="geometry">
            <mxPoint x="338.89473684210526" y="653.1833333333334" as="sourcePoint" />
            <mxPoint x="341.5263157894737" y="653.1833333333334" as="targetPoint" />
            <Array as="points">
              <mxPoint x="340.41828254847644" y="606" />
            </Array>
          </mxGeometry>
        </mxCell>
        <mxCell id="ud-DHqLhz_IXkj7XKrdy-114" value="" style="endArrow=none;html=1;rounded=0;fontFamily=YEFONTCaiHongTangTi;fontSize=12;fontColor=default;curved=1;fillColor=#f8cecc;strokeColor=#b85450;" edge="1" parent="1">
          <mxGeometry width="50" height="50" relative="1" as="geometry">
            <mxPoint x="341.5263157894737" y="653.1833333333333" as="sourcePoint" />
            <mxPoint x="344.1578947368421" y="653.1833333333333" as="targetPoint" />
            <Array as="points">
              <mxPoint x="343.0498614958449" y="700.3666666666667" />
            </Array>
          </mxGeometry>
        </mxCell>
        <mxCell id="ud-DHqLhz_IXkj7XKrdy-116" value="" style="endArrow=none;html=1;rounded=0;fontFamily=YEFONTCaiHongTangTi;fontSize=12;fontColor=default;curved=1;fillColor=#f8cecc;strokeColor=#b85450;" edge="1" parent="1">
          <mxGeometry width="50" height="50" relative="1" as="geometry">
            <mxPoint x="344.1578947368421" y="653.1833333333334" as="sourcePoint" />
            <mxPoint x="346.7894736842105" y="653.1833333333334" as="targetPoint" />
            <Array as="points">
              <mxPoint x="345.68144044321326" y="606" />
            </Array>
          </mxGeometry>
        </mxCell>
        <mxCell id="ud-DHqLhz_IXkj7XKrdy-117" value="" style="endArrow=none;html=1;rounded=0;fontFamily=YEFONTCaiHongTangTi;fontSize=12;fontColor=default;curved=1;fillColor=#f8cecc;strokeColor=#b85450;" edge="1" parent="1">
          <mxGeometry width="50" height="50" relative="1" as="geometry">
            <mxPoint x="346.7894736842105" y="653.1833333333333" as="sourcePoint" />
            <mxPoint x="349.4210526315789" y="653.1833333333333" as="targetPoint" />
            <Array as="points">
              <mxPoint x="348.3130193905817" y="700.3666666666667" />
            </Array>
          </mxGeometry>
        </mxCell>
        <mxCell id="ud-DHqLhz_IXkj7XKrdy-119" value="" style="endArrow=none;html=1;rounded=0;fontFamily=YEFONTCaiHongTangTi;fontSize=12;fontColor=default;curved=1;fillColor=#f8cecc;strokeColor=#b85450;" edge="1" parent="1">
          <mxGeometry width="50" height="50" relative="1" as="geometry">
            <mxPoint x="349.42105263157896" y="653.1833333333334" as="sourcePoint" />
            <mxPoint x="352.0526315789474" y="653.1833333333334" as="targetPoint" />
            <Array as="points">
              <mxPoint x="350.94459833795014" y="606" />
            </Array>
          </mxGeometry>
        </mxCell>
        <mxCell id="ud-DHqLhz_IXkj7XKrdy-120" value="" style="endArrow=none;html=1;rounded=0;fontFamily=YEFONTCaiHongTangTi;fontSize=12;fontColor=default;curved=1;fillColor=#f8cecc;strokeColor=#b85450;" edge="1" parent="1">
          <mxGeometry width="50" height="50" relative="1" as="geometry">
            <mxPoint x="352.0526315789474" y="653.1833333333333" as="sourcePoint" />
            <mxPoint x="354.6842105263158" y="653.1833333333333" as="targetPoint" />
            <Array as="points">
              <mxPoint x="353.5761772853186" y="700.3666666666667" />
            </Array>
          </mxGeometry>
        </mxCell>
        <mxCell id="ud-DHqLhz_IXkj7XKrdy-143" value="" style="endArrow=classic;html=1;rounded=0;fontFamily=YEFONTCaiHongTangTi;fontSize=12;fontColor=default;" edge="1" parent="1">
          <mxGeometry width="50" height="50" relative="1" as="geometry">
            <mxPoint x="372" y="706.5" as="sourcePoint" />
            <mxPoint x="447" y="706" as="targetPoint" />
          </mxGeometry>
        </mxCell>
        <mxCell id="ud-DHqLhz_IXkj7XKrdy-123" value="" style="group" vertex="1" connectable="0" parent="1">
          <mxGeometry x="372" y="652.7266666666667" width="10.000000000000002" height="108.27333333333334" as="geometry" />
        </mxCell>
        <mxCell id="ud-DHqLhz_IXkj7XKrdy-124" value="" style="endArrow=none;html=1;rounded=0;fontFamily=YEFONTCaiHongTangTi;fontSize=12;fontColor=default;curved=1;fillColor=#d5e8d4;strokeColor=#82b366;" edge="1" parent="ud-DHqLhz_IXkj7XKrdy-123">
          <mxGeometry width="50" height="50" relative="1" as="geometry">
            <mxPoint y="54.13666666666675" as="sourcePoint" />
            <mxPoint x="5.000000000000001" y="54.13666666666675" as="targetPoint" />
            <Array as="points">
              <mxPoint x="2.894736842105264" />
            </Array>
          </mxGeometry>
        </mxCell>
        <mxCell id="ud-DHqLhz_IXkj7XKrdy-125" value="" style="endArrow=none;html=1;rounded=0;fontFamily=YEFONTCaiHongTangTi;fontSize=12;fontColor=default;curved=1;fillColor=#d5e8d4;strokeColor=#82b366;" edge="1" parent="ud-DHqLhz_IXkj7XKrdy-123">
          <mxGeometry width="50" height="50" relative="1" as="geometry">
            <mxPoint x="5.000000000000001" y="54.13666666666661" as="sourcePoint" />
            <mxPoint x="10.000000000000002" y="54.13666666666661" as="targetPoint" />
            <Array as="points">
              <mxPoint x="7.894736842105264" y="108.27333333333337" />
            </Array>
          </mxGeometry>
        </mxCell>
        <mxCell id="ud-DHqLhz_IXkj7XKrdy-144" value="" style="endArrow=classic;html=1;rounded=0;fontFamily=YEFONTCaiHongTangTi;fontSize=12;fontColor=default;fillColor=#d5e8d4;strokeColor=#000000;" edge="1" parent="ud-DHqLhz_IXkj7XKrdy-123">
          <mxGeometry width="50" height="50" relative="1" as="geometry">
            <mxPoint y="71.94000000000003" as="sourcePoint" />
            <mxPoint y="16.713333333333367" as="targetPoint" />
          </mxGeometry>
        </mxCell>
        <mxCell id="ud-DHqLhz_IXkj7XKrdy-127" value="" style="endArrow=none;html=1;rounded=0;fontFamily=YEFONTCaiHongTangTi;fontSize=12;fontColor=default;curved=1;fillColor=#d5e8d4;strokeColor=#82b366;" edge="1" parent="1">
          <mxGeometry width="50" height="50" relative="1" as="geometry">
            <mxPoint x="382" y="706.1366666666668" as="sourcePoint" />
            <mxPoint x="387" y="706.1366666666668" as="targetPoint" />
            <Array as="points">
              <mxPoint x="384.89473684210526" y="652" />
            </Array>
          </mxGeometry>
        </mxCell>
        <mxCell id="ud-DHqLhz_IXkj7XKrdy-128" value="" style="endArrow=none;html=1;rounded=0;fontFamily=YEFONTCaiHongTangTi;fontSize=12;fontColor=default;curved=1;fillColor=#d5e8d4;strokeColor=#82b366;" edge="1" parent="1">
          <mxGeometry width="50" height="50" relative="1" as="geometry">
            <mxPoint x="387" y="706.1366666666665" as="sourcePoint" />
            <mxPoint x="392" y="706.1366666666665" as="targetPoint" />
            <Array as="points">
              <mxPoint x="389.89473684210526" y="760.2733333333333" />
            </Array>
          </mxGeometry>
        </mxCell>
        <mxCell id="ud-DHqLhz_IXkj7XKrdy-130" value="" style="endArrow=none;html=1;rounded=0;fontFamily=YEFONTCaiHongTangTi;fontSize=12;fontColor=default;curved=1;fillColor=#d5e8d4;strokeColor=#82b366;" edge="1" parent="1">
          <mxGeometry width="50" height="50" relative="1" as="geometry">
            <mxPoint x="392" y="706.1366666666668" as="sourcePoint" />
            <mxPoint x="397" y="706.1366666666668" as="targetPoint" />
            <Array as="points">
              <mxPoint x="394.89473684210526" y="652" />
            </Array>
          </mxGeometry>
        </mxCell>
        <mxCell id="ud-DHqLhz_IXkj7XKrdy-131" value="" style="endArrow=none;html=1;rounded=0;fontFamily=YEFONTCaiHongTangTi;fontSize=12;fontColor=default;curved=1;fillColor=#d5e8d4;strokeColor=#82b366;" edge="1" parent="1">
          <mxGeometry width="50" height="50" relative="1" as="geometry">
            <mxPoint x="397" y="706.1366666666665" as="sourcePoint" />
            <mxPoint x="402" y="706.1366666666665" as="targetPoint" />
            <Array as="points">
              <mxPoint x="399.89473684210526" y="760.2733333333333" />
            </Array>
          </mxGeometry>
        </mxCell>
        <mxCell id="ud-DHqLhz_IXkj7XKrdy-133" value="" style="endArrow=none;html=1;rounded=0;fontFamily=YEFONTCaiHongTangTi;fontSize=12;fontColor=default;curved=1;fillColor=#d5e8d4;strokeColor=#82b366;" edge="1" parent="1">
          <mxGeometry width="50" height="50" relative="1" as="geometry">
            <mxPoint x="402" y="706.1366666666668" as="sourcePoint" />
            <mxPoint x="407" y="706.1366666666668" as="targetPoint" />
            <Array as="points">
              <mxPoint x="404.89473684210526" y="652" />
            </Array>
          </mxGeometry>
        </mxCell>
        <mxCell id="ud-DHqLhz_IXkj7XKrdy-134" value="" style="endArrow=none;html=1;rounded=0;fontFamily=YEFONTCaiHongTangTi;fontSize=12;fontColor=default;curved=1;fillColor=#d5e8d4;strokeColor=#82b366;" edge="1" parent="1">
          <mxGeometry width="50" height="50" relative="1" as="geometry">
            <mxPoint x="407" y="706.1366666666665" as="sourcePoint" />
            <mxPoint x="412" y="706.1366666666665" as="targetPoint" />
            <Array as="points">
              <mxPoint x="409.89473684210526" y="760.2733333333333" />
            </Array>
          </mxGeometry>
        </mxCell>
        <mxCell id="ud-DHqLhz_IXkj7XKrdy-136" value="" style="endArrow=none;html=1;rounded=0;fontFamily=YEFONTCaiHongTangTi;fontSize=12;fontColor=default;curved=1;fillColor=#d5e8d4;strokeColor=#82b366;" edge="1" parent="1">
          <mxGeometry width="50" height="50" relative="1" as="geometry">
            <mxPoint x="412" y="706.1366666666668" as="sourcePoint" />
            <mxPoint x="417" y="706.1366666666668" as="targetPoint" />
            <Array as="points">
              <mxPoint x="414.89473684210526" y="652" />
            </Array>
          </mxGeometry>
        </mxCell>
        <mxCell id="ud-DHqLhz_IXkj7XKrdy-137" value="" style="endArrow=none;html=1;rounded=0;fontFamily=YEFONTCaiHongTangTi;fontSize=12;fontColor=default;curved=1;fillColor=#d5e8d4;strokeColor=#82b366;" edge="1" parent="1">
          <mxGeometry width="50" height="50" relative="1" as="geometry">
            <mxPoint x="417" y="706.1366666666665" as="sourcePoint" />
            <mxPoint x="422" y="706.1366666666665" as="targetPoint" />
            <Array as="points">
              <mxPoint x="419.89473684210526" y="760.2733333333333" />
            </Array>
          </mxGeometry>
        </mxCell>
        <mxCell id="ud-DHqLhz_IXkj7XKrdy-139" value="" style="endArrow=none;html=1;rounded=0;fontFamily=YEFONTCaiHongTangTi;fontSize=12;fontColor=default;curved=1;fillColor=#d5e8d4;strokeColor=#82b366;" edge="1" parent="1">
          <mxGeometry width="50" height="50" relative="1" as="geometry">
            <mxPoint x="422" y="706.1366666666668" as="sourcePoint" />
            <mxPoint x="427" y="706.1366666666668" as="targetPoint" />
            <Array as="points">
              <mxPoint x="424.89473684210526" y="652" />
            </Array>
          </mxGeometry>
        </mxCell>
        <mxCell id="ud-DHqLhz_IXkj7XKrdy-140" value="" style="endArrow=none;html=1;rounded=0;fontFamily=YEFONTCaiHongTangTi;fontSize=12;fontColor=default;curved=1;fillColor=#d5e8d4;strokeColor=#82b366;" edge="1" parent="1">
          <mxGeometry width="50" height="50" relative="1" as="geometry">
            <mxPoint x="427" y="706.1366666666665" as="sourcePoint" />
            <mxPoint x="432" y="706.1366666666665" as="targetPoint" />
            <Array as="points">
              <mxPoint x="429.89473684210526" y="760.2733333333333" />
            </Array>
          </mxGeometry>
        </mxCell>
        <mxCell id="ud-DHqLhz_IXkj7XKrdy-158" value="" style="endArrow=none;html=1;rounded=0;fontFamily=YEFONTCaiHongTangTi;fontSize=12;fontColor=default;curved=1;fillColor=#f8cecc;strokeColor=#b85450;" edge="1" parent="1">
          <mxGeometry width="50" height="50" relative="1" as="geometry">
            <mxPoint x="559.1052631578948" y="833.8166666666667" as="sourcePoint" />
            <mxPoint x="561.7368421052631" y="833.8166666666667" as="targetPoint" />
            <Array as="points">
              <mxPoint x="560.6288088642659" y="786.6333333333333" />
            </Array>
          </mxGeometry>
        </mxCell>
        <mxCell id="ud-DHqLhz_IXkj7XKrdy-159" value="" style="endArrow=none;html=1;rounded=0;fontFamily=YEFONTCaiHongTangTi;fontSize=12;fontColor=default;curved=1;fillColor=#f8cecc;strokeColor=#b85450;" edge="1" parent="1">
          <mxGeometry width="50" height="50" relative="1" as="geometry">
            <mxPoint x="561.7368421052631" y="833.8166666666666" as="sourcePoint" />
            <mxPoint x="564.3684210526316" y="833.8166666666666" as="targetPoint" />
            <Array as="points">
              <mxPoint x="563.2603878116344" y="881" />
            </Array>
          </mxGeometry>
        </mxCell>
        <mxCell id="ud-DHqLhz_IXkj7XKrdy-160" value="" style="endArrow=none;html=1;rounded=0;fontFamily=YEFONTCaiHongTangTi;fontSize=12;fontColor=default;curved=1;fillColor=#f8cecc;strokeColor=#b85450;" edge="1" parent="1">
          <mxGeometry width="50" height="50" relative="1" as="geometry">
            <mxPoint x="564.3684210526316" y="833.1833333333334" as="sourcePoint" />
            <mxPoint x="567" y="833.1833333333334" as="targetPoint" />
            <Array as="points">
              <mxPoint x="565.8919667590028" y="786" />
            </Array>
          </mxGeometry>
        </mxCell>
        <mxCell id="ud-DHqLhz_IXkj7XKrdy-161" value="" style="endArrow=none;html=1;rounded=0;fontFamily=YEFONTCaiHongTangTi;fontSize=12;fontColor=default;curved=1;fillColor=#f8cecc;strokeColor=#b85450;" edge="1" parent="1">
          <mxGeometry width="50" height="50" relative="1" as="geometry">
            <mxPoint x="567" y="833.1833333333333" as="sourcePoint" />
            <mxPoint x="569.6315789473683" y="833.1833333333333" as="targetPoint" />
            <Array as="points">
              <mxPoint x="568.5235457063711" y="880.3666666666667" />
            </Array>
          </mxGeometry>
        </mxCell>
        <mxCell id="ud-DHqLhz_IXkj7XKrdy-162" value="" style="endArrow=none;html=1;rounded=0;fontFamily=YEFONTCaiHongTangTi;fontSize=12;fontColor=default;curved=1;fillColor=#f8cecc;strokeColor=#b85450;" edge="1" parent="1">
          <mxGeometry width="50" height="50" relative="1" as="geometry">
            <mxPoint x="569.6315789473684" y="833.1833333333334" as="sourcePoint" />
            <mxPoint x="572.2631578947369" y="833.1833333333334" as="targetPoint" />
            <Array as="points">
              <mxPoint x="571.1551246537397" y="786" />
            </Array>
          </mxGeometry>
        </mxCell>
        <mxCell id="ud-DHqLhz_IXkj7XKrdy-163" value="" style="endArrow=none;html=1;rounded=0;fontFamily=YEFONTCaiHongTangTi;fontSize=12;fontColor=default;curved=1;fillColor=#f8cecc;strokeColor=#b85450;" edge="1" parent="1">
          <mxGeometry width="50" height="50" relative="1" as="geometry">
            <mxPoint x="572.2631578947369" y="833.1833333333333" as="sourcePoint" />
            <mxPoint x="574.8947368421052" y="833.1833333333333" as="targetPoint" />
            <Array as="points">
              <mxPoint x="573.786703601108" y="880.3666666666667" />
            </Array>
          </mxGeometry>
        </mxCell>
        <mxCell id="ud-DHqLhz_IXkj7XKrdy-164" value="" style="endArrow=none;html=1;rounded=0;fontFamily=YEFONTCaiHongTangTi;fontSize=12;fontColor=default;curved=1;fillColor=#f8cecc;strokeColor=#b85450;" edge="1" parent="1">
          <mxGeometry width="50" height="50" relative="1" as="geometry">
            <mxPoint x="574.8947368421052" y="833.1833333333334" as="sourcePoint" />
            <mxPoint x="577.5263157894738" y="833.1833333333334" as="targetPoint" />
            <Array as="points">
              <mxPoint x="576.4182825484764" y="786" />
            </Array>
          </mxGeometry>
        </mxCell>
        <mxCell id="ud-DHqLhz_IXkj7XKrdy-165" value="" style="endArrow=none;html=1;rounded=0;fontFamily=YEFONTCaiHongTangTi;fontSize=12;fontColor=default;curved=1;fillColor=#f8cecc;strokeColor=#b85450;" edge="1" parent="1">
          <mxGeometry width="50" height="50" relative="1" as="geometry">
            <mxPoint x="577.5263157894738" y="833.1833333333333" as="sourcePoint" />
            <mxPoint x="580.1578947368421" y="833.1833333333333" as="targetPoint" />
            <Array as="points">
              <mxPoint x="579.0498614958449" y="880.3666666666667" />
            </Array>
          </mxGeometry>
        </mxCell>
        <mxCell id="ud-DHqLhz_IXkj7XKrdy-166" value="" style="endArrow=none;html=1;rounded=0;fontFamily=YEFONTCaiHongTangTi;fontSize=12;fontColor=default;curved=1;fillColor=#f8cecc;strokeColor=#b85450;" edge="1" parent="1">
          <mxGeometry width="50" height="50" relative="1" as="geometry">
            <mxPoint x="580.1578947368421" y="833.1833333333334" as="sourcePoint" />
            <mxPoint x="582.7894736842105" y="833.1833333333334" as="targetPoint" />
            <Array as="points">
              <mxPoint x="581.6814404432132" y="786" />
            </Array>
          </mxGeometry>
        </mxCell>
        <mxCell id="ud-DHqLhz_IXkj7XKrdy-167" value="" style="endArrow=none;html=1;rounded=0;fontFamily=YEFONTCaiHongTangTi;fontSize=12;fontColor=default;curved=1;fillColor=#f8cecc;strokeColor=#b85450;" edge="1" parent="1">
          <mxGeometry width="50" height="50" relative="1" as="geometry">
            <mxPoint x="582.7894736842105" y="833.1833333333333" as="sourcePoint" />
            <mxPoint x="585.421052631579" y="833.1833333333333" as="targetPoint" />
            <Array as="points">
              <mxPoint x="584.3130193905818" y="880.3666666666667" />
            </Array>
          </mxGeometry>
        </mxCell>
        <mxCell id="ud-DHqLhz_IXkj7XKrdy-168" value="" style="endArrow=none;html=1;rounded=0;fontFamily=YEFONTCaiHongTangTi;fontSize=12;fontColor=default;curved=1;fillColor=#f8cecc;strokeColor=#b85450;" edge="1" parent="1">
          <mxGeometry width="50" height="50" relative="1" as="geometry">
            <mxPoint x="585.421052631579" y="833.1833333333334" as="sourcePoint" />
            <mxPoint x="588.0526315789474" y="833.1833333333334" as="targetPoint" />
            <Array as="points">
              <mxPoint x="586.9445983379501" y="786" />
            </Array>
          </mxGeometry>
        </mxCell>
        <mxCell id="ud-DHqLhz_IXkj7XKrdy-169" value="" style="endArrow=none;html=1;rounded=0;fontFamily=YEFONTCaiHongTangTi;fontSize=12;fontColor=default;curved=1;fillColor=#f8cecc;strokeColor=#b85450;" edge="1" parent="1">
          <mxGeometry width="50" height="50" relative="1" as="geometry">
            <mxPoint x="588.0526315789474" y="833.1833333333333" as="sourcePoint" />
            <mxPoint x="590.6842105263158" y="833.1833333333333" as="targetPoint" />
            <Array as="points">
              <mxPoint x="589.5761772853186" y="880.3666666666667" />
            </Array>
          </mxGeometry>
        </mxCell>
        <mxCell id="ud-DHqLhz_IXkj7XKrdy-156" value="" style="endArrow=classic;html=1;rounded=0;fontFamily=YEFONTCaiHongTangTi;fontSize=12;fontColor=default;movable=1;resizable=1;rotatable=1;deletable=1;editable=1;locked=0;connectable=1;" edge="1" parent="1">
          <mxGeometry width="50" height="50" relative="1" as="geometry">
            <mxPoint x="557" y="833.5" as="sourcePoint" />
            <mxPoint x="781" y="833" as="targetPoint" />
          </mxGeometry>
        </mxCell>
        <mxCell id="ud-DHqLhz_IXkj7XKrdy-157" value="" style="endArrow=classic;html=1;rounded=0;fontFamily=YEFONTCaiHongTangTi;fontSize=12;fontColor=default;movable=1;resizable=1;rotatable=1;deletable=1;editable=1;locked=0;connectable=1;" edge="1" parent="1">
          <mxGeometry width="50" height="50" relative="1" as="geometry">
            <mxPoint x="559.1052631578948" y="856.9333333333333" as="sourcePoint" />
            <mxPoint x="559.1052631578948" y="800.5656666666666" as="targetPoint" />
          </mxGeometry>
        </mxCell>
        <mxCell id="ud-DHqLhz_IXkj7XKrdy-223" value="" style="endArrow=none;html=1;rounded=0;fontFamily=YEFONTCaiHongTangTi;fontSize=12;fontColor=default;curved=1;fillColor=#f8cecc;strokeColor=#b85450;" edge="1" parent="1">
          <mxGeometry width="50" height="50" relative="1" as="geometry">
            <mxPoint x="609" y="833.8166666666667" as="sourcePoint" />
            <mxPoint x="611.6315789473683" y="833.8166666666667" as="targetPoint" />
            <Array as="points">
              <mxPoint x="610.5235457063711" y="786.6333333333333" />
            </Array>
          </mxGeometry>
        </mxCell>
        <mxCell id="ud-DHqLhz_IXkj7XKrdy-224" value="" style="endArrow=none;html=1;rounded=0;fontFamily=YEFONTCaiHongTangTi;fontSize=12;fontColor=default;curved=1;fillColor=#f8cecc;strokeColor=#b85450;" edge="1" parent="1">
          <mxGeometry width="50" height="50" relative="1" as="geometry">
            <mxPoint x="611.6315789473683" y="833.8166666666666" as="sourcePoint" />
            <mxPoint x="614.2631578947368" y="833.8166666666666" as="targetPoint" />
            <Array as="points">
              <mxPoint x="613.1551246537396" y="881" />
            </Array>
          </mxGeometry>
        </mxCell>
        <mxCell id="ud-DHqLhz_IXkj7XKrdy-225" value="" style="endArrow=none;html=1;rounded=0;fontFamily=YEFONTCaiHongTangTi;fontSize=12;fontColor=default;curved=1;fillColor=#f8cecc;strokeColor=#b85450;" edge="1" parent="1">
          <mxGeometry width="50" height="50" relative="1" as="geometry">
            <mxPoint x="614.2631578947368" y="833.1833333333334" as="sourcePoint" />
            <mxPoint x="616.8947368421052" y="833.1833333333334" as="targetPoint" />
            <Array as="points">
              <mxPoint x="615.786703601108" y="786" />
            </Array>
          </mxGeometry>
        </mxCell>
        <mxCell id="ud-DHqLhz_IXkj7XKrdy-226" value="" style="endArrow=none;html=1;rounded=0;fontFamily=YEFONTCaiHongTangTi;fontSize=12;fontColor=default;curved=1;fillColor=#f8cecc;strokeColor=#b85450;" edge="1" parent="1">
          <mxGeometry width="50" height="50" relative="1" as="geometry">
            <mxPoint x="616.8947368421052" y="833.1833333333333" as="sourcePoint" />
            <mxPoint x="619.5263157894735" y="833.1833333333333" as="targetPoint" />
            <Array as="points">
              <mxPoint x="618.4182825484763" y="880.3666666666667" />
            </Array>
          </mxGeometry>
        </mxCell>
        <mxCell id="ud-DHqLhz_IXkj7XKrdy-227" value="" style="endArrow=none;html=1;rounded=0;fontFamily=YEFONTCaiHongTangTi;fontSize=12;fontColor=default;curved=1;fillColor=#f8cecc;strokeColor=#b85450;" edge="1" parent="1">
          <mxGeometry width="50" height="50" relative="1" as="geometry">
            <mxPoint x="619.5263157894736" y="833.1833333333334" as="sourcePoint" />
            <mxPoint x="622.1578947368421" y="833.1833333333334" as="targetPoint" />
            <Array as="points">
              <mxPoint x="621.0498614958449" y="786" />
            </Array>
          </mxGeometry>
        </mxCell>
        <mxCell id="ud-DHqLhz_IXkj7XKrdy-228" value="" style="endArrow=none;html=1;rounded=0;fontFamily=YEFONTCaiHongTangTi;fontSize=12;fontColor=default;curved=1;fillColor=#f8cecc;strokeColor=#b85450;" edge="1" parent="1">
          <mxGeometry width="50" height="50" relative="1" as="geometry">
            <mxPoint x="622.1578947368421" y="833.1833333333333" as="sourcePoint" />
            <mxPoint x="624.7894736842104" y="833.1833333333333" as="targetPoint" />
            <Array as="points">
              <mxPoint x="623.6814404432132" y="880.3666666666667" />
            </Array>
          </mxGeometry>
        </mxCell>
        <mxCell id="ud-DHqLhz_IXkj7XKrdy-229" value="" style="endArrow=none;html=1;rounded=0;fontFamily=YEFONTCaiHongTangTi;fontSize=12;fontColor=default;curved=1;fillColor=#f8cecc;strokeColor=#b85450;" edge="1" parent="1">
          <mxGeometry width="50" height="50" relative="1" as="geometry">
            <mxPoint x="624.7894736842104" y="833.1833333333334" as="sourcePoint" />
            <mxPoint x="627.421052631579" y="833.1833333333334" as="targetPoint" />
            <Array as="points">
              <mxPoint x="626.3130193905816" y="786" />
            </Array>
          </mxGeometry>
        </mxCell>
        <mxCell id="ud-DHqLhz_IXkj7XKrdy-230" value="" style="endArrow=none;html=1;rounded=0;fontFamily=YEFONTCaiHongTangTi;fontSize=12;fontColor=default;curved=1;fillColor=#f8cecc;strokeColor=#b85450;" edge="1" parent="1">
          <mxGeometry width="50" height="50" relative="1" as="geometry">
            <mxPoint x="627.421052631579" y="833.1833333333333" as="sourcePoint" />
            <mxPoint x="630.0526315789473" y="833.1833333333333" as="targetPoint" />
            <Array as="points">
              <mxPoint x="628.9445983379501" y="880.3666666666667" />
            </Array>
          </mxGeometry>
        </mxCell>
        <mxCell id="ud-DHqLhz_IXkj7XKrdy-231" value="" style="endArrow=none;html=1;rounded=0;fontFamily=YEFONTCaiHongTangTi;fontSize=12;fontColor=default;curved=1;fillColor=#f8cecc;strokeColor=#b85450;" edge="1" parent="1">
          <mxGeometry width="50" height="50" relative="1" as="geometry">
            <mxPoint x="630.0526315789473" y="833.1833333333334" as="sourcePoint" />
            <mxPoint x="632.6842105263157" y="833.1833333333334" as="targetPoint" />
            <Array as="points">
              <mxPoint x="631.5761772853184" y="786" />
            </Array>
          </mxGeometry>
        </mxCell>
        <mxCell id="ud-DHqLhz_IXkj7XKrdy-232" value="" style="endArrow=none;html=1;rounded=0;fontFamily=YEFONTCaiHongTangTi;fontSize=12;fontColor=default;curved=1;fillColor=#f8cecc;strokeColor=#b85450;" edge="1" parent="1">
          <mxGeometry width="50" height="50" relative="1" as="geometry">
            <mxPoint x="632.6842105263157" y="833.1833333333333" as="sourcePoint" />
            <mxPoint x="635.3157894736842" y="833.1833333333333" as="targetPoint" />
            <Array as="points">
              <mxPoint x="634.207756232687" y="880.3666666666667" />
            </Array>
          </mxGeometry>
        </mxCell>
        <mxCell id="ud-DHqLhz_IXkj7XKrdy-233" value="" style="endArrow=none;html=1;rounded=0;fontFamily=YEFONTCaiHongTangTi;fontSize=12;fontColor=default;curved=1;fillColor=#f8cecc;strokeColor=#b85450;" edge="1" parent="1">
          <mxGeometry width="50" height="50" relative="1" as="geometry">
            <mxPoint x="635.3157894736842" y="833.1833333333334" as="sourcePoint" />
            <mxPoint x="637.9473684210526" y="833.1833333333334" as="targetPoint" />
            <Array as="points">
              <mxPoint x="636.8393351800553" y="786" />
            </Array>
          </mxGeometry>
        </mxCell>
        <mxCell id="ud-DHqLhz_IXkj7XKrdy-234" value="" style="endArrow=none;html=1;rounded=0;fontFamily=YEFONTCaiHongTangTi;fontSize=12;fontColor=default;curved=1;fillColor=#f8cecc;strokeColor=#b85450;" edge="1" parent="1">
          <mxGeometry width="50" height="50" relative="1" as="geometry">
            <mxPoint x="637.9473684210526" y="833.1833333333333" as="sourcePoint" />
            <mxPoint x="640.578947368421" y="833.1833333333333" as="targetPoint" />
            <Array as="points">
              <mxPoint x="639.4709141274238" y="880.3666666666667" />
            </Array>
          </mxGeometry>
        </mxCell>
        <mxCell id="ud-DHqLhz_IXkj7XKrdy-235" value="" style="endArrow=none;html=1;rounded=0;fontFamily=YEFONTCaiHongTangTi;fontSize=12;fontColor=default;curved=1;fillColor=#f8cecc;strokeColor=#b85450;" edge="1" parent="1">
          <mxGeometry width="50" height="50" relative="1" as="geometry">
            <mxPoint x="660.53" y="833.8166666666667" as="sourcePoint" />
            <mxPoint x="663.1615789473683" y="833.8166666666667" as="targetPoint" />
            <Array as="points">
              <mxPoint x="662.0535457063711" y="786.6333333333333" />
            </Array>
          </mxGeometry>
        </mxCell>
        <mxCell id="ud-DHqLhz_IXkj7XKrdy-236" value="" style="endArrow=none;html=1;rounded=0;fontFamily=YEFONTCaiHongTangTi;fontSize=12;fontColor=default;curved=1;fillColor=#f8cecc;strokeColor=#b85450;" edge="1" parent="1">
          <mxGeometry width="50" height="50" relative="1" as="geometry">
            <mxPoint x="663.1615789473683" y="833.8166666666666" as="sourcePoint" />
            <mxPoint x="665.7931578947367" y="833.8166666666666" as="targetPoint" />
            <Array as="points">
              <mxPoint x="664.6851246537395" y="881" />
            </Array>
          </mxGeometry>
        </mxCell>
        <mxCell id="ud-DHqLhz_IXkj7XKrdy-237" value="" style="endArrow=none;html=1;rounded=0;fontFamily=YEFONTCaiHongTangTi;fontSize=12;fontColor=default;curved=1;fillColor=#f8cecc;strokeColor=#b85450;" edge="1" parent="1">
          <mxGeometry width="50" height="50" relative="1" as="geometry">
            <mxPoint x="665.7931578947367" y="833.1833333333334" as="sourcePoint" />
            <mxPoint x="668.4247368421052" y="833.1833333333334" as="targetPoint" />
            <Array as="points">
              <mxPoint x="667.316703601108" y="786" />
            </Array>
          </mxGeometry>
        </mxCell>
        <mxCell id="ud-DHqLhz_IXkj7XKrdy-238" value="" style="endArrow=none;html=1;rounded=0;fontFamily=YEFONTCaiHongTangTi;fontSize=12;fontColor=default;curved=1;fillColor=#f8cecc;strokeColor=#b85450;" edge="1" parent="1">
          <mxGeometry width="50" height="50" relative="1" as="geometry">
            <mxPoint x="668.4247368421052" y="833.1833333333333" as="sourcePoint" />
            <mxPoint x="671.0563157894735" y="833.1833333333333" as="targetPoint" />
            <Array as="points">
              <mxPoint x="669.9482825484763" y="880.3666666666667" />
            </Array>
          </mxGeometry>
        </mxCell>
        <mxCell id="ud-DHqLhz_IXkj7XKrdy-239" value="" style="endArrow=none;html=1;rounded=0;fontFamily=YEFONTCaiHongTangTi;fontSize=12;fontColor=default;curved=1;fillColor=#f8cecc;strokeColor=#b85450;" edge="1" parent="1">
          <mxGeometry width="50" height="50" relative="1" as="geometry">
            <mxPoint x="671.0563157894736" y="833.1833333333334" as="sourcePoint" />
            <mxPoint x="673.687894736842" y="833.1833333333334" as="targetPoint" />
            <Array as="points">
              <mxPoint x="672.5798614958449" y="786" />
            </Array>
          </mxGeometry>
        </mxCell>
        <mxCell id="ud-DHqLhz_IXkj7XKrdy-241" value="" style="endArrow=none;html=1;rounded=0;fontFamily=YEFONTCaiHongTangTi;fontSize=12;fontColor=default;curved=1;fillColor=#f8cecc;strokeColor=#b85450;" edge="1" parent="1">
          <mxGeometry width="50" height="50" relative="1" as="geometry">
            <mxPoint x="676.3194736842104" y="833.1833333333334" as="sourcePoint" />
            <mxPoint x="678.9510526315789" y="833.1833333333334" as="targetPoint" />
            <Array as="points">
              <mxPoint x="677.8430193905816" y="786" />
            </Array>
          </mxGeometry>
        </mxCell>
        <mxCell id="ud-DHqLhz_IXkj7XKrdy-242" value="" style="endArrow=none;html=1;rounded=0;fontFamily=YEFONTCaiHongTangTi;fontSize=12;fontColor=default;curved=1;fillColor=#f8cecc;strokeColor=#b85450;" edge="1" parent="1">
          <mxGeometry width="50" height="50" relative="1" as="geometry">
            <mxPoint x="678.9510526315789" y="833.1833333333333" as="sourcePoint" />
            <mxPoint x="681.5826315789473" y="833.1833333333333" as="targetPoint" />
            <Array as="points">
              <mxPoint x="680.47459833795" y="880.3666666666667" />
            </Array>
          </mxGeometry>
        </mxCell>
        <mxCell id="ud-DHqLhz_IXkj7XKrdy-243" value="" style="endArrow=none;html=1;rounded=0;fontFamily=YEFONTCaiHongTangTi;fontSize=12;fontColor=default;curved=1;fillColor=#f8cecc;strokeColor=#b85450;" edge="1" parent="1">
          <mxGeometry width="50" height="50" relative="1" as="geometry">
            <mxPoint x="681.5826315789473" y="833.1833333333334" as="sourcePoint" />
            <mxPoint x="684.2142105263157" y="833.1833333333334" as="targetPoint" />
            <Array as="points">
              <mxPoint x="683.1061772853184" y="786" />
            </Array>
          </mxGeometry>
        </mxCell>
        <mxCell id="ud-DHqLhz_IXkj7XKrdy-244" value="" style="endArrow=none;html=1;rounded=0;fontFamily=YEFONTCaiHongTangTi;fontSize=12;fontColor=default;curved=1;fillColor=#f8cecc;strokeColor=#b85450;" edge="1" parent="1">
          <mxGeometry width="50" height="50" relative="1" as="geometry">
            <mxPoint x="684.2142105263157" y="833.1833333333333" as="sourcePoint" />
            <mxPoint x="686.8457894736841" y="833.1833333333333" as="targetPoint" />
            <Array as="points">
              <mxPoint x="685.7377562326869" y="880.3666666666667" />
            </Array>
          </mxGeometry>
        </mxCell>
        <mxCell id="ud-DHqLhz_IXkj7XKrdy-245" value="" style="endArrow=none;html=1;rounded=0;fontFamily=YEFONTCaiHongTangTi;fontSize=12;fontColor=default;curved=1;fillColor=#f8cecc;strokeColor=#b85450;" edge="1" parent="1">
          <mxGeometry width="50" height="50" relative="1" as="geometry">
            <mxPoint x="686.8457894736841" y="833.1833333333334" as="sourcePoint" />
            <mxPoint x="689.4773684210526" y="833.1833333333334" as="targetPoint" />
            <Array as="points">
              <mxPoint x="688.3693351800553" y="786" />
            </Array>
          </mxGeometry>
        </mxCell>
        <mxCell id="ud-DHqLhz_IXkj7XKrdy-246" value="" style="endArrow=none;html=1;rounded=0;fontFamily=YEFONTCaiHongTangTi;fontSize=12;fontColor=default;curved=1;fillColor=#f8cecc;strokeColor=#b85450;" edge="1" parent="1">
          <mxGeometry width="50" height="50" relative="1" as="geometry">
            <mxPoint x="689.4773684210526" y="833.1833333333333" as="sourcePoint" />
            <mxPoint x="692.108947368421" y="833.1833333333333" as="targetPoint" />
            <Array as="points">
              <mxPoint x="691.0009141274238" y="880.3666666666667" />
            </Array>
          </mxGeometry>
        </mxCell>
        <mxCell id="ud-DHqLhz_IXkj7XKrdy-248" value="" style="endArrow=none;html=1;rounded=0;fontFamily=YEFONTCaiHongTangTi;fontSize=12;fontColor=default;curved=1;fillColor=#f8cecc;strokeColor=#b85450;" edge="1" parent="1">
          <mxGeometry width="50" height="50" relative="1" as="geometry">
            <mxPoint x="710.4247368421052" y="833.8166666666667" as="sourcePoint" />
            <mxPoint x="713.0563157894735" y="833.8166666666667" as="targetPoint" />
            <Array as="points">
              <mxPoint x="711.9482825484763" y="786.6333333333333" />
            </Array>
          </mxGeometry>
        </mxCell>
        <mxCell id="ud-DHqLhz_IXkj7XKrdy-249" value="" style="endArrow=none;html=1;rounded=0;fontFamily=YEFONTCaiHongTangTi;fontSize=12;fontColor=default;curved=1;fillColor=#f8cecc;strokeColor=#b85450;" edge="1" parent="1">
          <mxGeometry width="50" height="50" relative="1" as="geometry">
            <mxPoint x="713.0563157894735" y="833.8166666666666" as="sourcePoint" />
            <mxPoint x="715.6878947368419" y="833.8166666666666" as="targetPoint" />
            <Array as="points">
              <mxPoint x="714.5798614958447" y="881" />
            </Array>
          </mxGeometry>
        </mxCell>
        <mxCell id="ud-DHqLhz_IXkj7XKrdy-250" value="" style="endArrow=none;html=1;rounded=0;fontFamily=YEFONTCaiHongTangTi;fontSize=12;fontColor=default;curved=1;fillColor=#f8cecc;strokeColor=#b85450;" edge="1" parent="1">
          <mxGeometry width="50" height="50" relative="1" as="geometry">
            <mxPoint x="715.6878947368419" y="833.1833333333334" as="sourcePoint" />
            <mxPoint x="718.3194736842104" y="833.1833333333334" as="targetPoint" />
            <Array as="points">
              <mxPoint x="717.2114404432132" y="786" />
            </Array>
          </mxGeometry>
        </mxCell>
        <mxCell id="ud-DHqLhz_IXkj7XKrdy-251" value="" style="endArrow=none;html=1;rounded=0;fontFamily=YEFONTCaiHongTangTi;fontSize=12;fontColor=default;curved=1;fillColor=#f8cecc;strokeColor=#b85450;" edge="1" parent="1">
          <mxGeometry width="50" height="50" relative="1" as="geometry">
            <mxPoint x="718.3194736842104" y="833.1833333333333" as="sourcePoint" />
            <mxPoint x="720.9510526315787" y="833.1833333333333" as="targetPoint" />
            <Array as="points">
              <mxPoint x="719.8430193905815" y="880.3666666666667" />
            </Array>
          </mxGeometry>
        </mxCell>
        <mxCell id="ud-DHqLhz_IXkj7XKrdy-252" value="" style="endArrow=none;html=1;rounded=0;fontFamily=YEFONTCaiHongTangTi;fontSize=12;fontColor=default;curved=1;fillColor=#f8cecc;strokeColor=#b85450;" edge="1" parent="1">
          <mxGeometry width="50" height="50" relative="1" as="geometry">
            <mxPoint x="720.9510526315788" y="833.1833333333334" as="sourcePoint" />
            <mxPoint x="723.5826315789473" y="833.1833333333334" as="targetPoint" />
            <Array as="points">
              <mxPoint x="722.47459833795" y="786" />
            </Array>
          </mxGeometry>
        </mxCell>
        <mxCell id="ud-DHqLhz_IXkj7XKrdy-253" value="" style="endArrow=none;html=1;rounded=0;fontFamily=YEFONTCaiHongTangTi;fontSize=12;fontColor=default;curved=1;fillColor=#f8cecc;strokeColor=#b85450;" edge="1" parent="1">
          <mxGeometry width="50" height="50" relative="1" as="geometry">
            <mxPoint x="723.5826315789473" y="833.1833333333333" as="sourcePoint" />
            <mxPoint x="726.2142105263156" y="833.1833333333333" as="targetPoint" />
            <Array as="points">
              <mxPoint x="725.1061772853184" y="880.3666666666667" />
            </Array>
          </mxGeometry>
        </mxCell>
        <mxCell id="ud-DHqLhz_IXkj7XKrdy-254" value="" style="endArrow=none;html=1;rounded=0;fontFamily=YEFONTCaiHongTangTi;fontSize=12;fontColor=default;curved=1;fillColor=#f8cecc;strokeColor=#b85450;" edge="1" parent="1">
          <mxGeometry width="50" height="50" relative="1" as="geometry">
            <mxPoint x="726.2142105263156" y="833.1833333333334" as="sourcePoint" />
            <mxPoint x="728.8457894736841" y="833.1833333333334" as="targetPoint" />
            <Array as="points">
              <mxPoint x="727.7377562326868" y="786" />
            </Array>
          </mxGeometry>
        </mxCell>
        <mxCell id="ud-DHqLhz_IXkj7XKrdy-255" value="" style="endArrow=none;html=1;rounded=0;fontFamily=YEFONTCaiHongTangTi;fontSize=12;fontColor=default;curved=1;fillColor=#f8cecc;strokeColor=#b85450;" edge="1" parent="1">
          <mxGeometry width="50" height="50" relative="1" as="geometry">
            <mxPoint x="728.8457894736841" y="833.1833333333333" as="sourcePoint" />
            <mxPoint x="731.4773684210525" y="833.1833333333333" as="targetPoint" />
            <Array as="points">
              <mxPoint x="730.3693351800553" y="880.3666666666667" />
            </Array>
          </mxGeometry>
        </mxCell>
        <mxCell id="ud-DHqLhz_IXkj7XKrdy-256" value="" style="endArrow=none;html=1;rounded=0;fontFamily=YEFONTCaiHongTangTi;fontSize=12;fontColor=default;curved=1;fillColor=#f8cecc;strokeColor=#b85450;" edge="1" parent="1">
          <mxGeometry width="50" height="50" relative="1" as="geometry">
            <mxPoint x="731.4773684210525" y="833.1833333333334" as="sourcePoint" />
            <mxPoint x="734.1089473684209" y="833.1833333333334" as="targetPoint" />
            <Array as="points">
              <mxPoint x="733.0009141274236" y="786" />
            </Array>
          </mxGeometry>
        </mxCell>
        <mxCell id="ud-DHqLhz_IXkj7XKrdy-257" value="" style="endArrow=none;html=1;rounded=0;fontFamily=YEFONTCaiHongTangTi;fontSize=12;fontColor=default;curved=1;fillColor=#f8cecc;strokeColor=#b85450;" edge="1" parent="1">
          <mxGeometry width="50" height="50" relative="1" as="geometry">
            <mxPoint x="734.1089473684209" y="833.1833333333333" as="sourcePoint" />
            <mxPoint x="736.7405263157893" y="833.1833333333333" as="targetPoint" />
            <Array as="points">
              <mxPoint x="735.6324930747921" y="880.3666666666667" />
            </Array>
          </mxGeometry>
        </mxCell>
        <mxCell id="ud-DHqLhz_IXkj7XKrdy-258" value="" style="endArrow=none;html=1;rounded=0;fontFamily=YEFONTCaiHongTangTi;fontSize=12;fontColor=default;curved=1;fillColor=#f8cecc;strokeColor=#b85450;" edge="1" parent="1">
          <mxGeometry width="50" height="50" relative="1" as="geometry">
            <mxPoint x="736.7405263157893" y="833.1833333333334" as="sourcePoint" />
            <mxPoint x="739.3721052631578" y="833.1833333333334" as="targetPoint" />
            <Array as="points">
              <mxPoint x="738.2640720221605" y="786" />
            </Array>
          </mxGeometry>
        </mxCell>
        <mxCell id="ud-DHqLhz_IXkj7XKrdy-259" value="" style="endArrow=none;html=1;rounded=0;fontFamily=YEFONTCaiHongTangTi;fontSize=12;fontColor=default;curved=1;fillColor=#f8cecc;strokeColor=#b85450;" edge="1" parent="1">
          <mxGeometry width="50" height="50" relative="1" as="geometry">
            <mxPoint x="739.3721052631578" y="833.1833333333333" as="sourcePoint" />
            <mxPoint x="742.0036842105262" y="833.1833333333333" as="targetPoint" />
            <Array as="points">
              <mxPoint x="740.895650969529" y="880.3666666666667" />
            </Array>
          </mxGeometry>
        </mxCell>
        <mxCell id="ud-DHqLhz_IXkj7XKrdy-264" value="$$\tau$$" style="text;html=1;align=center;verticalAlign=middle;whiteSpace=wrap;rounded=0;fontFamily=YEFONTCaiHongTangTi;fontSize=12;fontColor=default;" vertex="1" parent="1">
          <mxGeometry x="669" y="788" width="15" height="11" as="geometry" />
        </mxCell>
        <mxCell id="ud-DHqLhz_IXkj7XKrdy-265" value="" style="endArrow=classic;startArrow=classic;html=1;rounded=0;fontFamily=YEFONTCaiHongTangTi;fontSize=12;fontColor=default;" edge="1" parent="1">
          <mxGeometry width="50" height="50" relative="1" as="geometry">
            <mxPoint x="660" y="800" as="sourcePoint" />
            <mxPoint x="692" y="800" as="targetPoint" />
          </mxGeometry>
        </mxCell>
        <mxCell id="ud-DHqLhz_IXkj7XKrdy-266" value="" style="endArrow=classic;startArrow=classic;html=1;rounded=0;fontFamily=YEFONTCaiHongTangTi;fontSize=12;fontColor=default;" edge="1" parent="1">
          <mxGeometry width="50" height="50" relative="1" as="geometry">
            <mxPoint x="608" y="790" as="sourcePoint" />
            <mxPoint x="692" y="790" as="targetPoint" />
          </mxGeometry>
        </mxCell>
        <mxCell id="ud-DHqLhz_IXkj7XKrdy-268" value="$$T_r$$" style="text;html=1;align=center;verticalAlign=middle;whiteSpace=wrap;rounded=0;fontFamily=YEFONTCaiHongTangTi;fontSize=12;fontColor=default;" vertex="1" parent="1">
          <mxGeometry x="644" y="776" width="15" height="11" as="geometry" />
        </mxCell>
        <mxCell id="ud-DHqLhz_IXkj7XKrdy-269" value="" style="endArrow=none;html=1;rounded=0;fontFamily=YEFONTCaiHongTangTi;fontSize=12;fontColor=default;exitX=0;exitY=0;exitDx=0;exitDy=0;" edge="1" parent="1" source="ud-DHqLhz_IXkj7XKrdy-260">
          <mxGeometry width="50" height="50" relative="1" as="geometry">
            <mxPoint x="605" y="789" as="sourcePoint" />
            <mxPoint x="608" y="780" as="targetPoint" />
          </mxGeometry>
        </mxCell>
        <mxCell id="ud-DHqLhz_IXkj7XKrdy-270" value="" style="endArrow=none;html=1;rounded=0;fontFamily=YEFONTCaiHongTangTi;fontSize=12;fontColor=default;exitX=0;exitY=0;exitDx=0;exitDy=0;" edge="1" parent="1">
          <mxGeometry width="50" height="50" relative="1" as="geometry">
            <mxPoint x="693" y="809" as="sourcePoint" />
            <mxPoint x="693" y="780" as="targetPoint" />
          </mxGeometry>
        </mxCell>
        <mxCell id="ud-DHqLhz_IXkj7XKrdy-274" value="" style="endArrow=none;html=1;rounded=0;fontFamily=YEFONTCaiHongTangTi;fontSize=12;fontColor=default;curved=1;fillColor=#f8cecc;strokeColor=#b85450;" edge="1" parent="1">
          <mxGeometry width="50" height="50" relative="1" as="geometry">
            <mxPoint x="560.1052631578948" y="923.8166666666667" as="sourcePoint" />
            <mxPoint x="562.7368421052631" y="923.8166666666667" as="targetPoint" />
            <Array as="points">
              <mxPoint x="561.6288088642659" y="876.6333333333333" />
            </Array>
          </mxGeometry>
        </mxCell>
        <mxCell id="ud-DHqLhz_IXkj7XKrdy-275" value="" style="endArrow=none;html=1;rounded=0;fontFamily=YEFONTCaiHongTangTi;fontSize=12;fontColor=default;curved=1;fillColor=#f8cecc;strokeColor=#b85450;" edge="1" parent="1">
          <mxGeometry width="50" height="50" relative="1" as="geometry">
            <mxPoint x="562.7368421052631" y="923.8166666666666" as="sourcePoint" />
            <mxPoint x="565.3684210526316" y="923.8166666666666" as="targetPoint" />
            <Array as="points">
              <mxPoint x="564.2603878116344" y="971" />
            </Array>
          </mxGeometry>
        </mxCell>
        <mxCell id="ud-DHqLhz_IXkj7XKrdy-276" value="" style="endArrow=none;html=1;rounded=0;fontFamily=YEFONTCaiHongTangTi;fontSize=12;fontColor=default;curved=1;fillColor=#f8cecc;strokeColor=#b85450;" edge="1" parent="1">
          <mxGeometry width="50" height="50" relative="1" as="geometry">
            <mxPoint x="565.3684210526316" y="923.1833333333334" as="sourcePoint" />
            <mxPoint x="568" y="923.1833333333334" as="targetPoint" />
            <Array as="points">
              <mxPoint x="566.8919667590028" y="876" />
            </Array>
          </mxGeometry>
        </mxCell>
        <mxCell id="ud-DHqLhz_IXkj7XKrdy-277" value="" style="endArrow=none;html=1;rounded=0;fontFamily=YEFONTCaiHongTangTi;fontSize=12;fontColor=default;curved=1;fillColor=#f8cecc;strokeColor=#b85450;" edge="1" parent="1">
          <mxGeometry width="50" height="50" relative="1" as="geometry">
            <mxPoint x="568" y="923.1833333333333" as="sourcePoint" />
            <mxPoint x="570.6315789473683" y="923.1833333333333" as="targetPoint" />
            <Array as="points">
              <mxPoint x="569.5235457063711" y="970.3666666666667" />
            </Array>
          </mxGeometry>
        </mxCell>
        <mxCell id="ud-DHqLhz_IXkj7XKrdy-278" value="" style="endArrow=none;html=1;rounded=0;fontFamily=YEFONTCaiHongTangTi;fontSize=12;fontColor=default;curved=1;fillColor=#f8cecc;strokeColor=#b85450;" edge="1" parent="1">
          <mxGeometry width="50" height="50" relative="1" as="geometry">
            <mxPoint x="570.6315789473684" y="923.1833333333334" as="sourcePoint" />
            <mxPoint x="573.2631578947369" y="923.1833333333334" as="targetPoint" />
            <Array as="points">
              <mxPoint x="572.1551246537397" y="876" />
            </Array>
          </mxGeometry>
        </mxCell>
        <mxCell id="ud-DHqLhz_IXkj7XKrdy-279" value="" style="endArrow=none;html=1;rounded=0;fontFamily=YEFONTCaiHongTangTi;fontSize=12;fontColor=default;curved=1;fillColor=#f8cecc;strokeColor=#b85450;" edge="1" parent="1">
          <mxGeometry width="50" height="50" relative="1" as="geometry">
            <mxPoint x="573.2631578947369" y="923.1833333333333" as="sourcePoint" />
            <mxPoint x="575.8947368421052" y="923.1833333333333" as="targetPoint" />
            <Array as="points">
              <mxPoint x="574.786703601108" y="970.3666666666667" />
            </Array>
          </mxGeometry>
        </mxCell>
        <mxCell id="ud-DHqLhz_IXkj7XKrdy-280" value="" style="endArrow=none;html=1;rounded=0;fontFamily=YEFONTCaiHongTangTi;fontSize=12;fontColor=default;curved=1;fillColor=#f8cecc;strokeColor=#b85450;" edge="1" parent="1">
          <mxGeometry width="50" height="50" relative="1" as="geometry">
            <mxPoint x="575.8947368421052" y="923.1833333333334" as="sourcePoint" />
            <mxPoint x="578.5263157894738" y="923.1833333333334" as="targetPoint" />
            <Array as="points">
              <mxPoint x="577.4182825484764" y="876" />
            </Array>
          </mxGeometry>
        </mxCell>
        <mxCell id="ud-DHqLhz_IXkj7XKrdy-281" value="" style="endArrow=none;html=1;rounded=0;fontFamily=YEFONTCaiHongTangTi;fontSize=12;fontColor=default;curved=1;fillColor=#f8cecc;strokeColor=#b85450;" edge="1" parent="1">
          <mxGeometry width="50" height="50" relative="1" as="geometry">
            <mxPoint x="578.5263157894738" y="923.1833333333333" as="sourcePoint" />
            <mxPoint x="581.1578947368421" y="923.1833333333333" as="targetPoint" />
            <Array as="points">
              <mxPoint x="580.0498614958449" y="970.3666666666667" />
            </Array>
          </mxGeometry>
        </mxCell>
        <mxCell id="ud-DHqLhz_IXkj7XKrdy-282" value="" style="endArrow=none;html=1;rounded=0;fontFamily=YEFONTCaiHongTangTi;fontSize=12;fontColor=default;curved=1;fillColor=#f8cecc;strokeColor=#b85450;" edge="1" parent="1">
          <mxGeometry width="50" height="50" relative="1" as="geometry">
            <mxPoint x="581.1578947368421" y="923.1833333333334" as="sourcePoint" />
            <mxPoint x="583.7894736842105" y="923.1833333333334" as="targetPoint" />
            <Array as="points">
              <mxPoint x="582.6814404432132" y="876" />
            </Array>
          </mxGeometry>
        </mxCell>
        <mxCell id="ud-DHqLhz_IXkj7XKrdy-283" value="" style="endArrow=none;html=1;rounded=0;fontFamily=YEFONTCaiHongTangTi;fontSize=12;fontColor=default;curved=1;fillColor=#f8cecc;strokeColor=#b85450;" edge="1" parent="1">
          <mxGeometry width="50" height="50" relative="1" as="geometry">
            <mxPoint x="583.7894736842105" y="923.1833333333333" as="sourcePoint" />
            <mxPoint x="586.421052631579" y="923.1833333333333" as="targetPoint" />
            <Array as="points">
              <mxPoint x="585.3130193905818" y="970.3666666666667" />
            </Array>
          </mxGeometry>
        </mxCell>
        <mxCell id="ud-DHqLhz_IXkj7XKrdy-284" value="" style="endArrow=none;html=1;rounded=0;fontFamily=YEFONTCaiHongTangTi;fontSize=12;fontColor=default;curved=1;fillColor=#f8cecc;strokeColor=#b85450;" edge="1" parent="1">
          <mxGeometry width="50" height="50" relative="1" as="geometry">
            <mxPoint x="586.421052631579" y="923.1833333333334" as="sourcePoint" />
            <mxPoint x="589.0526315789474" y="923.1833333333334" as="targetPoint" />
            <Array as="points">
              <mxPoint x="587.9445983379501" y="876" />
            </Array>
          </mxGeometry>
        </mxCell>
        <mxCell id="ud-DHqLhz_IXkj7XKrdy-285" value="" style="endArrow=none;html=1;rounded=0;fontFamily=YEFONTCaiHongTangTi;fontSize=12;fontColor=default;curved=1;fillColor=#f8cecc;strokeColor=#b85450;" edge="1" parent="1">
          <mxGeometry width="50" height="50" relative="1" as="geometry">
            <mxPoint x="589.0526315789474" y="923.1833333333333" as="sourcePoint" />
            <mxPoint x="591.6842105263158" y="923.1833333333333" as="targetPoint" />
            <Array as="points">
              <mxPoint x="590.5761772853186" y="970.3666666666667" />
            </Array>
          </mxGeometry>
        </mxCell>
        <mxCell id="ud-DHqLhz_IXkj7XKrdy-286" value="" style="endArrow=classic;html=1;rounded=0;fontFamily=YEFONTCaiHongTangTi;fontSize=12;fontColor=default;movable=1;resizable=1;rotatable=1;deletable=1;editable=1;locked=0;connectable=1;" edge="1" parent="1">
          <mxGeometry width="50" height="50" relative="1" as="geometry">
            <mxPoint x="558" y="923.5" as="sourcePoint" />
            <mxPoint x="706" y="923" as="targetPoint" />
          </mxGeometry>
        </mxCell>
        <mxCell id="ud-DHqLhz_IXkj7XKrdy-287" value="" style="endArrow=classic;html=1;rounded=0;fontFamily=YEFONTCaiHongTangTi;fontSize=12;fontColor=default;movable=1;resizable=1;rotatable=1;deletable=1;editable=1;locked=0;connectable=1;" edge="1" parent="1">
          <mxGeometry width="50" height="50" relative="1" as="geometry">
            <mxPoint x="560.1052631578948" y="946.9333333333333" as="sourcePoint" />
            <mxPoint x="560.1052631578948" y="890.5656666666666" as="targetPoint" />
          </mxGeometry>
        </mxCell>
        <mxCell id="ud-DHqLhz_IXkj7XKrdy-311" value="" style="endArrow=none;html=1;rounded=0;fontFamily=YEFONTCaiHongTangTi;fontSize=12;fontColor=default;curved=1;fillColor=#f8cecc;strokeColor=#b85450;" edge="1" parent="1">
          <mxGeometry width="50" height="50" relative="1" as="geometry">
            <mxPoint x="656.0047368421052" y="923.8166666666667" as="sourcePoint" />
            <mxPoint x="658.6363157894735" y="923.8166666666667" as="targetPoint" />
            <Array as="points">
              <mxPoint x="657.5282825484763" y="876.6333333333333" />
            </Array>
          </mxGeometry>
        </mxCell>
        <mxCell id="ud-DHqLhz_IXkj7XKrdy-312" value="" style="endArrow=none;html=1;rounded=0;fontFamily=YEFONTCaiHongTangTi;fontSize=12;fontColor=default;curved=1;fillColor=#f8cecc;strokeColor=#b85450;" edge="1" parent="1">
          <mxGeometry width="50" height="50" relative="1" as="geometry">
            <mxPoint x="658.6363157894735" y="923.8166666666666" as="sourcePoint" />
            <mxPoint x="661.267894736842" y="923.8166666666666" as="targetPoint" />
            <Array as="points">
              <mxPoint x="660.1598614958448" y="971" />
            </Array>
          </mxGeometry>
        </mxCell>
        <mxCell id="ud-DHqLhz_IXkj7XKrdy-313" value="" style="endArrow=none;html=1;rounded=0;fontFamily=YEFONTCaiHongTangTi;fontSize=12;fontColor=default;curved=1;fillColor=#f8cecc;strokeColor=#b85450;" edge="1" parent="1">
          <mxGeometry width="50" height="50" relative="1" as="geometry">
            <mxPoint x="661.267894736842" y="923.1833333333334" as="sourcePoint" />
            <mxPoint x="663.8994736842104" y="923.1833333333334" as="targetPoint" />
            <Array as="points">
              <mxPoint x="662.7914404432132" y="876" />
            </Array>
          </mxGeometry>
        </mxCell>
        <mxCell id="ud-DHqLhz_IXkj7XKrdy-314" value="" style="endArrow=none;html=1;rounded=0;fontFamily=YEFONTCaiHongTangTi;fontSize=12;fontColor=default;curved=1;fillColor=#f8cecc;strokeColor=#b85450;" edge="1" parent="1">
          <mxGeometry width="50" height="50" relative="1" as="geometry">
            <mxPoint x="663.8994736842104" y="923.1833333333333" as="sourcePoint" />
            <mxPoint x="666.5310526315787" y="923.1833333333333" as="targetPoint" />
            <Array as="points">
              <mxPoint x="665.4230193905815" y="970.3666666666667" />
            </Array>
          </mxGeometry>
        </mxCell>
        <mxCell id="ud-DHqLhz_IXkj7XKrdy-315" value="" style="endArrow=none;html=1;rounded=0;fontFamily=YEFONTCaiHongTangTi;fontSize=12;fontColor=default;curved=1;fillColor=#f8cecc;strokeColor=#b85450;" edge="1" parent="1">
          <mxGeometry width="50" height="50" relative="1" as="geometry">
            <mxPoint x="666.5310526315789" y="923.1833333333334" as="sourcePoint" />
            <mxPoint x="669.1626315789473" y="923.1833333333334" as="targetPoint" />
            <Array as="points">
              <mxPoint x="668.0545983379501" y="876" />
            </Array>
          </mxGeometry>
        </mxCell>
        <mxCell id="ud-DHqLhz_IXkj7XKrdy-316" value="" style="endArrow=none;html=1;rounded=0;fontFamily=YEFONTCaiHongTangTi;fontSize=12;fontColor=default;curved=1;fillColor=#f8cecc;strokeColor=#b85450;" edge="1" parent="1">
          <mxGeometry width="50" height="50" relative="1" as="geometry">
            <mxPoint x="669.1626315789473" y="923.1833333333333" as="sourcePoint" />
            <mxPoint x="671.7942105263156" y="923.1833333333333" as="targetPoint" />
            <Array as="points">
              <mxPoint x="670.6861772853184" y="970.3666666666667" />
            </Array>
          </mxGeometry>
        </mxCell>
        <mxCell id="ud-DHqLhz_IXkj7XKrdy-317" value="" style="endArrow=none;html=1;rounded=0;fontFamily=YEFONTCaiHongTangTi;fontSize=12;fontColor=default;curved=1;fillColor=#f8cecc;strokeColor=#b85450;" edge="1" parent="1">
          <mxGeometry width="50" height="50" relative="1" as="geometry">
            <mxPoint x="671.7942105263156" y="923.1833333333334" as="sourcePoint" />
            <mxPoint x="674.4257894736842" y="923.1833333333334" as="targetPoint" />
            <Array as="points">
              <mxPoint x="673.3177562326869" y="876" />
            </Array>
          </mxGeometry>
        </mxCell>
        <mxCell id="ud-DHqLhz_IXkj7XKrdy-318" value="" style="endArrow=none;html=1;rounded=0;fontFamily=YEFONTCaiHongTangTi;fontSize=12;fontColor=default;curved=1;fillColor=#f8cecc;strokeColor=#b85450;" edge="1" parent="1">
          <mxGeometry width="50" height="50" relative="1" as="geometry">
            <mxPoint x="674.4257894736842" y="923.1833333333333" as="sourcePoint" />
            <mxPoint x="677.0573684210525" y="923.1833333333333" as="targetPoint" />
            <Array as="points">
              <mxPoint x="675.9493351800553" y="970.3666666666667" />
            </Array>
          </mxGeometry>
        </mxCell>
        <mxCell id="ud-DHqLhz_IXkj7XKrdy-319" value="" style="endArrow=none;html=1;rounded=0;fontFamily=YEFONTCaiHongTangTi;fontSize=12;fontColor=default;curved=1;fillColor=#f8cecc;strokeColor=#b85450;" edge="1" parent="1">
          <mxGeometry width="50" height="50" relative="1" as="geometry">
            <mxPoint x="677.0573684210525" y="923.1833333333334" as="sourcePoint" />
            <mxPoint x="679.6889473684209" y="923.1833333333334" as="targetPoint" />
            <Array as="points">
              <mxPoint x="678.5809141274236" y="876" />
            </Array>
          </mxGeometry>
        </mxCell>
        <mxCell id="ud-DHqLhz_IXkj7XKrdy-320" value="" style="endArrow=none;html=1;rounded=0;fontFamily=YEFONTCaiHongTangTi;fontSize=12;fontColor=default;curved=1;fillColor=#f8cecc;strokeColor=#b85450;" edge="1" parent="1">
          <mxGeometry width="50" height="50" relative="1" as="geometry">
            <mxPoint x="679.6889473684209" y="923.1833333333333" as="sourcePoint" />
            <mxPoint x="682.3205263157894" y="923.1833333333333" as="targetPoint" />
            <Array as="points">
              <mxPoint x="681.2124930747922" y="970.3666666666667" />
            </Array>
          </mxGeometry>
        </mxCell>
        <mxCell id="ud-DHqLhz_IXkj7XKrdy-321" value="" style="endArrow=none;html=1;rounded=0;fontFamily=YEFONTCaiHongTangTi;fontSize=12;fontColor=default;curved=1;fillColor=#f8cecc;strokeColor=#b85450;" edge="1" parent="1">
          <mxGeometry width="50" height="50" relative="1" as="geometry">
            <mxPoint x="682.3205263157894" y="923.1833333333334" as="sourcePoint" />
            <mxPoint x="684.9521052631578" y="923.1833333333334" as="targetPoint" />
            <Array as="points">
              <mxPoint x="683.8440720221605" y="876" />
            </Array>
          </mxGeometry>
        </mxCell>
        <mxCell id="ud-DHqLhz_IXkj7XKrdy-322" value="" style="endArrow=none;html=1;rounded=0;fontFamily=YEFONTCaiHongTangTi;fontSize=12;fontColor=default;curved=1;fillColor=#f8cecc;strokeColor=#b85450;" edge="1" parent="1">
          <mxGeometry width="50" height="50" relative="1" as="geometry">
            <mxPoint x="684.9521052631578" y="923.1833333333333" as="sourcePoint" />
            <mxPoint x="687.5836842105263" y="923.1833333333333" as="targetPoint" />
            <Array as="points">
              <mxPoint x="686.475650969529" y="970.3666666666667" />
            </Array>
          </mxGeometry>
        </mxCell>
        <mxCell id="ud-DHqLhz_IXkj7XKrdy-329" value="" style="endArrow=none;html=1;rounded=0;fontFamily=YEFONTCaiHongTangTi;fontSize=12;fontColor=default;curved=1;fillColor=#f8cecc;strokeColor=#b85450;" edge="1" parent="1">
          <mxGeometry width="50" height="50" relative="1" as="geometry">
            <mxPoint x="592" y="923.8166666666667" as="sourcePoint" />
            <mxPoint x="594.6315789473683" y="923.8166666666667" as="targetPoint" />
            <Array as="points">
              <mxPoint x="593.5235457063711" y="876.6333333333333" />
            </Array>
          </mxGeometry>
        </mxCell>
        <mxCell id="ud-DHqLhz_IXkj7XKrdy-330" value="" style="endArrow=none;html=1;rounded=0;fontFamily=YEFONTCaiHongTangTi;fontSize=12;fontColor=default;curved=1;fillColor=#f8cecc;strokeColor=#b85450;" edge="1" parent="1">
          <mxGeometry width="50" height="50" relative="1" as="geometry">
            <mxPoint x="594.6315789473683" y="923.8166666666666" as="sourcePoint" />
            <mxPoint x="597.2631578947368" y="923.8166666666666" as="targetPoint" />
            <Array as="points">
              <mxPoint x="596.1551246537396" y="971" />
            </Array>
          </mxGeometry>
        </mxCell>
        <mxCell id="ud-DHqLhz_IXkj7XKrdy-331" value="" style="endArrow=none;html=1;rounded=0;fontFamily=YEFONTCaiHongTangTi;fontSize=12;fontColor=default;curved=1;fillColor=#f8cecc;strokeColor=#b85450;" edge="1" parent="1">
          <mxGeometry width="50" height="50" relative="1" as="geometry">
            <mxPoint x="597.2631578947368" y="923.1833333333334" as="sourcePoint" />
            <mxPoint x="599.8947368421052" y="923.1833333333334" as="targetPoint" />
            <Array as="points">
              <mxPoint x="598.786703601108" y="876" />
            </Array>
          </mxGeometry>
        </mxCell>
        <mxCell id="ud-DHqLhz_IXkj7XKrdy-332" value="" style="endArrow=none;html=1;rounded=0;fontFamily=YEFONTCaiHongTangTi;fontSize=12;fontColor=default;curved=1;fillColor=#f8cecc;strokeColor=#b85450;" edge="1" parent="1">
          <mxGeometry width="50" height="50" relative="1" as="geometry">
            <mxPoint x="599.8947368421052" y="923.1833333333333" as="sourcePoint" />
            <mxPoint x="602.5263157894735" y="923.1833333333333" as="targetPoint" />
            <Array as="points">
              <mxPoint x="601.4182825484763" y="970.3666666666668" />
            </Array>
          </mxGeometry>
        </mxCell>
        <mxCell id="ud-DHqLhz_IXkj7XKrdy-333" value="" style="endArrow=none;html=1;rounded=0;fontFamily=YEFONTCaiHongTangTi;fontSize=12;fontColor=default;curved=1;fillColor=#f8cecc;strokeColor=#b85450;" edge="1" parent="1">
          <mxGeometry width="50" height="50" relative="1" as="geometry">
            <mxPoint x="602.5263157894736" y="923.1833333333334" as="sourcePoint" />
            <mxPoint x="605.1578947368421" y="923.1833333333334" as="targetPoint" />
            <Array as="points">
              <mxPoint x="604.0498614958449" y="876" />
            </Array>
          </mxGeometry>
        </mxCell>
        <mxCell id="ud-DHqLhz_IXkj7XKrdy-334" value="" style="endArrow=none;html=1;rounded=0;fontFamily=YEFONTCaiHongTangTi;fontSize=12;fontColor=default;curved=1;fillColor=#f8cecc;strokeColor=#b85450;" edge="1" parent="1">
          <mxGeometry width="50" height="50" relative="1" as="geometry">
            <mxPoint x="605.1578947368421" y="923.1833333333333" as="sourcePoint" />
            <mxPoint x="607.7894736842104" y="923.1833333333333" as="targetPoint" />
            <Array as="points">
              <mxPoint x="606.6814404432132" y="970.3666666666668" />
            </Array>
          </mxGeometry>
        </mxCell>
        <mxCell id="ud-DHqLhz_IXkj7XKrdy-335" value="" style="endArrow=none;html=1;rounded=0;fontFamily=YEFONTCaiHongTangTi;fontSize=12;fontColor=default;curved=1;fillColor=#f8cecc;strokeColor=#b85450;" edge="1" parent="1">
          <mxGeometry width="50" height="50" relative="1" as="geometry">
            <mxPoint x="607.7894736842104" y="923.1833333333334" as="sourcePoint" />
            <mxPoint x="610.421052631579" y="923.1833333333334" as="targetPoint" />
            <Array as="points">
              <mxPoint x="609.3130193905816" y="876" />
            </Array>
          </mxGeometry>
        </mxCell>
        <mxCell id="ud-DHqLhz_IXkj7XKrdy-336" value="" style="endArrow=none;html=1;rounded=0;fontFamily=YEFONTCaiHongTangTi;fontSize=12;fontColor=default;curved=1;fillColor=#f8cecc;strokeColor=#b85450;" edge="1" parent="1">
          <mxGeometry width="50" height="50" relative="1" as="geometry">
            <mxPoint x="610.421052631579" y="923.1833333333333" as="sourcePoint" />
            <mxPoint x="613.0526315789473" y="923.1833333333333" as="targetPoint" />
            <Array as="points">
              <mxPoint x="611.9445983379501" y="970.3666666666668" />
            </Array>
          </mxGeometry>
        </mxCell>
        <mxCell id="ud-DHqLhz_IXkj7XKrdy-337" value="" style="endArrow=none;html=1;rounded=0;fontFamily=YEFONTCaiHongTangTi;fontSize=12;fontColor=default;curved=1;fillColor=#f8cecc;strokeColor=#b85450;" edge="1" parent="1">
          <mxGeometry width="50" height="50" relative="1" as="geometry">
            <mxPoint x="613.0526315789473" y="923.1833333333334" as="sourcePoint" />
            <mxPoint x="615.6842105263157" y="923.1833333333334" as="targetPoint" />
            <Array as="points">
              <mxPoint x="614.5761772853184" y="876" />
            </Array>
          </mxGeometry>
        </mxCell>
        <mxCell id="ud-DHqLhz_IXkj7XKrdy-338" value="" style="endArrow=none;html=1;rounded=0;fontFamily=YEFONTCaiHongTangTi;fontSize=12;fontColor=default;curved=1;fillColor=#f8cecc;strokeColor=#b85450;" edge="1" parent="1">
          <mxGeometry width="50" height="50" relative="1" as="geometry">
            <mxPoint x="615.6842105263157" y="923.1833333333333" as="sourcePoint" />
            <mxPoint x="618.3157894736842" y="923.1833333333333" as="targetPoint" />
            <Array as="points">
              <mxPoint x="617.207756232687" y="970.3666666666668" />
            </Array>
          </mxGeometry>
        </mxCell>
        <mxCell id="ud-DHqLhz_IXkj7XKrdy-339" value="" style="endArrow=none;html=1;rounded=0;fontFamily=YEFONTCaiHongTangTi;fontSize=12;fontColor=default;curved=1;fillColor=#f8cecc;strokeColor=#b85450;" edge="1" parent="1">
          <mxGeometry width="50" height="50" relative="1" as="geometry">
            <mxPoint x="618.3157894736842" y="923.1833333333334" as="sourcePoint" />
            <mxPoint x="620.9473684210526" y="923.1833333333334" as="targetPoint" />
            <Array as="points">
              <mxPoint x="619.8393351800553" y="876" />
            </Array>
          </mxGeometry>
        </mxCell>
        <mxCell id="ud-DHqLhz_IXkj7XKrdy-340" value="" style="endArrow=none;html=1;rounded=0;fontFamily=YEFONTCaiHongTangTi;fontSize=12;fontColor=default;curved=1;fillColor=#f8cecc;strokeColor=#b85450;" edge="1" parent="1">
          <mxGeometry width="50" height="50" relative="1" as="geometry">
            <mxPoint x="620.9473684210526" y="923.1833333333333" as="sourcePoint" />
            <mxPoint x="623.578947368421" y="923.1833333333333" as="targetPoint" />
            <Array as="points">
              <mxPoint x="622.4709141274238" y="970.3666666666668" />
            </Array>
          </mxGeometry>
        </mxCell>
        <mxCell id="ud-DHqLhz_IXkj7XKrdy-341" value="" style="endArrow=none;html=1;rounded=0;fontFamily=YEFONTCaiHongTangTi;fontSize=12;fontColor=default;curved=1;fillColor=#f8cecc;strokeColor=#b85450;" edge="1" parent="1">
          <mxGeometry width="50" height="50" relative="1" as="geometry">
            <mxPoint x="624" y="923.8166666666667" as="sourcePoint" />
            <mxPoint x="626.6315789473683" y="923.8166666666667" as="targetPoint" />
            <Array as="points">
              <mxPoint x="625.5235457063711" y="876.6333333333333" />
            </Array>
          </mxGeometry>
        </mxCell>
        <mxCell id="ud-DHqLhz_IXkj7XKrdy-342" value="" style="endArrow=none;html=1;rounded=0;fontFamily=YEFONTCaiHongTangTi;fontSize=12;fontColor=default;curved=1;fillColor=#f8cecc;strokeColor=#b85450;" edge="1" parent="1">
          <mxGeometry width="50" height="50" relative="1" as="geometry">
            <mxPoint x="626.6315789473683" y="923.8166666666666" as="sourcePoint" />
            <mxPoint x="629.2631578947368" y="923.8166666666666" as="targetPoint" />
            <Array as="points">
              <mxPoint x="628.1551246537396" y="971" />
            </Array>
          </mxGeometry>
        </mxCell>
        <mxCell id="ud-DHqLhz_IXkj7XKrdy-343" value="" style="endArrow=none;html=1;rounded=0;fontFamily=YEFONTCaiHongTangTi;fontSize=12;fontColor=default;curved=1;fillColor=#f8cecc;strokeColor=#b85450;" edge="1" parent="1">
          <mxGeometry width="50" height="50" relative="1" as="geometry">
            <mxPoint x="629.2631578947368" y="923.1833333333334" as="sourcePoint" />
            <mxPoint x="631.8947368421052" y="923.1833333333334" as="targetPoint" />
            <Array as="points">
              <mxPoint x="630.786703601108" y="876" />
            </Array>
          </mxGeometry>
        </mxCell>
        <mxCell id="ud-DHqLhz_IXkj7XKrdy-344" value="" style="endArrow=none;html=1;rounded=0;fontFamily=YEFONTCaiHongTangTi;fontSize=12;fontColor=default;curved=1;fillColor=#f8cecc;strokeColor=#b85450;" edge="1" parent="1">
          <mxGeometry width="50" height="50" relative="1" as="geometry">
            <mxPoint x="631.8947368421052" y="923.1833333333333" as="sourcePoint" />
            <mxPoint x="634.5263157894735" y="923.1833333333333" as="targetPoint" />
            <Array as="points">
              <mxPoint x="633.4182825484763" y="970.3666666666667" />
            </Array>
          </mxGeometry>
        </mxCell>
        <mxCell id="ud-DHqLhz_IXkj7XKrdy-345" value="" style="endArrow=none;html=1;rounded=0;fontFamily=YEFONTCaiHongTangTi;fontSize=12;fontColor=default;curved=1;fillColor=#f8cecc;strokeColor=#b85450;" edge="1" parent="1">
          <mxGeometry width="50" height="50" relative="1" as="geometry">
            <mxPoint x="634.5263157894736" y="923.1833333333334" as="sourcePoint" />
            <mxPoint x="637.1578947368421" y="923.1833333333334" as="targetPoint" />
            <Array as="points">
              <mxPoint x="636.0498614958449" y="876" />
            </Array>
          </mxGeometry>
        </mxCell>
        <mxCell id="ud-DHqLhz_IXkj7XKrdy-346" value="" style="endArrow=none;html=1;rounded=0;fontFamily=YEFONTCaiHongTangTi;fontSize=12;fontColor=default;curved=1;fillColor=#f8cecc;strokeColor=#b85450;" edge="1" parent="1">
          <mxGeometry width="50" height="50" relative="1" as="geometry">
            <mxPoint x="637.1578947368421" y="923.1833333333333" as="sourcePoint" />
            <mxPoint x="639.7894736842104" y="923.1833333333333" as="targetPoint" />
            <Array as="points">
              <mxPoint x="638.6814404432132" y="970.3666666666667" />
            </Array>
          </mxGeometry>
        </mxCell>
        <mxCell id="ud-DHqLhz_IXkj7XKrdy-347" value="" style="endArrow=none;html=1;rounded=0;fontFamily=YEFONTCaiHongTangTi;fontSize=12;fontColor=default;curved=1;fillColor=#f8cecc;strokeColor=#b85450;" edge="1" parent="1">
          <mxGeometry width="50" height="50" relative="1" as="geometry">
            <mxPoint x="639.7894736842104" y="923.1833333333334" as="sourcePoint" />
            <mxPoint x="642.421052631579" y="923.1833333333334" as="targetPoint" />
            <Array as="points">
              <mxPoint x="641.3130193905816" y="876" />
            </Array>
          </mxGeometry>
        </mxCell>
        <mxCell id="ud-DHqLhz_IXkj7XKrdy-348" value="" style="endArrow=none;html=1;rounded=0;fontFamily=YEFONTCaiHongTangTi;fontSize=12;fontColor=default;curved=1;fillColor=#f8cecc;strokeColor=#b85450;" edge="1" parent="1">
          <mxGeometry width="50" height="50" relative="1" as="geometry">
            <mxPoint x="642.421052631579" y="923.1833333333333" as="sourcePoint" />
            <mxPoint x="645.0526315789473" y="923.1833333333333" as="targetPoint" />
            <Array as="points">
              <mxPoint x="643.9445983379501" y="970.3666666666667" />
            </Array>
          </mxGeometry>
        </mxCell>
        <mxCell id="ud-DHqLhz_IXkj7XKrdy-349" value="" style="endArrow=none;html=1;rounded=0;fontFamily=YEFONTCaiHongTangTi;fontSize=12;fontColor=default;curved=1;fillColor=#f8cecc;strokeColor=#b85450;" edge="1" parent="1">
          <mxGeometry width="50" height="50" relative="1" as="geometry">
            <mxPoint x="645.0526315789473" y="923.1833333333334" as="sourcePoint" />
            <mxPoint x="647.6842105263157" y="923.1833333333334" as="targetPoint" />
            <Array as="points">
              <mxPoint x="646.5761772853184" y="876" />
            </Array>
          </mxGeometry>
        </mxCell>
        <mxCell id="ud-DHqLhz_IXkj7XKrdy-350" value="" style="endArrow=none;html=1;rounded=0;fontFamily=YEFONTCaiHongTangTi;fontSize=12;fontColor=default;curved=1;fillColor=#f8cecc;strokeColor=#b85450;" edge="1" parent="1">
          <mxGeometry width="50" height="50" relative="1" as="geometry">
            <mxPoint x="647.6842105263157" y="923.1833333333333" as="sourcePoint" />
            <mxPoint x="650.3157894736842" y="923.1833333333333" as="targetPoint" />
            <Array as="points">
              <mxPoint x="649.207756232687" y="970.3666666666667" />
            </Array>
          </mxGeometry>
        </mxCell>
        <mxCell id="ud-DHqLhz_IXkj7XKrdy-351" value="" style="endArrow=none;html=1;rounded=0;fontFamily=YEFONTCaiHongTangTi;fontSize=12;fontColor=default;curved=1;fillColor=#f8cecc;strokeColor=#b85450;" edge="1" parent="1">
          <mxGeometry width="50" height="50" relative="1" as="geometry">
            <mxPoint x="650.3157894736842" y="923.1833333333334" as="sourcePoint" />
            <mxPoint x="652.9473684210526" y="923.1833333333334" as="targetPoint" />
            <Array as="points">
              <mxPoint x="651.8393351800553" y="876" />
            </Array>
          </mxGeometry>
        </mxCell>
        <mxCell id="ud-DHqLhz_IXkj7XKrdy-352" value="" style="endArrow=none;html=1;rounded=0;fontFamily=YEFONTCaiHongTangTi;fontSize=12;fontColor=default;curved=1;fillColor=#f8cecc;strokeColor=#b85450;" edge="1" parent="1">
          <mxGeometry width="50" height="50" relative="1" as="geometry">
            <mxPoint x="652.9473684210526" y="923.1833333333333" as="sourcePoint" />
            <mxPoint x="655.578947368421" y="923.1833333333333" as="targetPoint" />
            <Array as="points">
              <mxPoint x="654.4709141274238" y="970.3666666666667" />
            </Array>
          </mxGeometry>
        </mxCell>
        <mxCell id="ud-DHqLhz_IXkj7XKrdy-355" value="$$S_t(t)=Acos(2\pi f_0 t + \varphi )$$" style="text;html=1;align=center;verticalAlign=middle;whiteSpace=wrap;rounded=0;fontFamily=YEFONTCaiHongTangTi;fontSize=12;fontColor=default;" vertex="1" parent="1">
          <mxGeometry x="564" y="882" width="142" height="11" as="geometry" />
        </mxCell>
        <mxCell id="ud-DHqLhz_IXkj7XKrdy-359" value="" style="endArrow=none;html=1;rounded=0;fontFamily=YEFONTCaiHongTangTi;fontSize=12;fontColor=default;curved=1;fillColor=#f8cecc;strokeColor=#b85450;" edge="1" parent="1">
          <mxGeometry width="50" height="50" relative="1" as="geometry">
            <mxPoint x="761" y="1018.8166666666667" as="sourcePoint" />
            <mxPoint x="763.6315789473683" y="1018.8166666666667" as="targetPoint" />
            <Array as="points">
              <mxPoint x="762.5235457063711" y="971.6333333333333" />
            </Array>
          </mxGeometry>
        </mxCell>
        <mxCell id="ud-DHqLhz_IXkj7XKrdy-360" value="" style="endArrow=none;html=1;rounded=0;fontFamily=YEFONTCaiHongTangTi;fontSize=12;fontColor=default;curved=1;fillColor=#f8cecc;strokeColor=#b85450;" edge="1" parent="1">
          <mxGeometry width="50" height="50" relative="1" as="geometry">
            <mxPoint x="763.6315789473683" y="1018.8166666666666" as="sourcePoint" />
            <mxPoint x="766.2631578947368" y="1018.8166666666666" as="targetPoint" />
            <Array as="points">
              <mxPoint x="765.1551246537396" y="1066" />
            </Array>
          </mxGeometry>
        </mxCell>
        <mxCell id="ud-DHqLhz_IXkj7XKrdy-361" value="" style="endArrow=none;html=1;rounded=0;fontFamily=YEFONTCaiHongTangTi;fontSize=12;fontColor=default;curved=1;fillColor=#f8cecc;strokeColor=#b85450;" edge="1" parent="1">
          <mxGeometry width="50" height="50" relative="1" as="geometry">
            <mxPoint x="766.2631578947368" y="1018.1833333333334" as="sourcePoint" />
            <mxPoint x="768.8947368421052" y="1018.1833333333334" as="targetPoint" />
            <Array as="points">
              <mxPoint x="767.786703601108" y="971" />
            </Array>
          </mxGeometry>
        </mxCell>
        <mxCell id="ud-DHqLhz_IXkj7XKrdy-362" value="" style="endArrow=none;html=1;rounded=0;fontFamily=YEFONTCaiHongTangTi;fontSize=12;fontColor=default;curved=1;fillColor=#f8cecc;strokeColor=#b85450;" edge="1" parent="1">
          <mxGeometry width="50" height="50" relative="1" as="geometry">
            <mxPoint x="768.8947368421052" y="1018.1833333333333" as="sourcePoint" />
            <mxPoint x="771.5263157894735" y="1018.1833333333333" as="targetPoint" />
            <Array as="points">
              <mxPoint x="770.4182825484763" y="1065.3666666666668" />
            </Array>
          </mxGeometry>
        </mxCell>
        <mxCell id="ud-DHqLhz_IXkj7XKrdy-363" value="" style="endArrow=none;html=1;rounded=0;fontFamily=YEFONTCaiHongTangTi;fontSize=12;fontColor=default;curved=1;fillColor=#f8cecc;strokeColor=#b85450;" edge="1" parent="1">
          <mxGeometry width="50" height="50" relative="1" as="geometry">
            <mxPoint x="771.5263157894736" y="1018.1833333333334" as="sourcePoint" />
            <mxPoint x="774.1578947368421" y="1018.1833333333334" as="targetPoint" />
            <Array as="points">
              <mxPoint x="773.0498614958449" y="971" />
            </Array>
          </mxGeometry>
        </mxCell>
        <mxCell id="ud-DHqLhz_IXkj7XKrdy-364" value="" style="endArrow=none;html=1;rounded=0;fontFamily=YEFONTCaiHongTangTi;fontSize=12;fontColor=default;curved=1;fillColor=#f8cecc;strokeColor=#b85450;" edge="1" parent="1">
          <mxGeometry width="50" height="50" relative="1" as="geometry">
            <mxPoint x="774.1578947368421" y="1018.1833333333333" as="sourcePoint" />
            <mxPoint x="779" y="1019" as="targetPoint" />
            <Array as="points">
              <mxPoint x="775.6814404432132" y="1065.3666666666668" />
            </Array>
          </mxGeometry>
        </mxCell>
        <mxCell id="ud-DHqLhz_IXkj7XKrdy-365" value="" style="endArrow=none;html=1;rounded=0;fontFamily=YEFONTCaiHongTangTi;fontSize=12;fontColor=default;curved=1;fillColor=#f8cecc;strokeColor=#b85450;" edge="1" parent="1">
          <mxGeometry width="50" height="50" relative="1" as="geometry">
            <mxPoint x="779" y="1019" as="sourcePoint" />
            <mxPoint x="783" y="1018" as="targetPoint" />
            <Array as="points">
              <mxPoint x="782" y="971" />
            </Array>
          </mxGeometry>
        </mxCell>
        <mxCell id="ud-DHqLhz_IXkj7XKrdy-366" value="" style="endArrow=none;html=1;rounded=0;fontFamily=YEFONTCaiHongTangTi;fontSize=12;fontColor=default;curved=1;fillColor=#f8cecc;strokeColor=#b85450;" edge="1" parent="1">
          <mxGeometry width="50" height="50" relative="1" as="geometry">
            <mxPoint x="783" y="1018" as="sourcePoint" />
            <mxPoint x="788" y="1018" as="targetPoint" />
            <Array as="points">
              <mxPoint x="786.1545983379501" y="1065.3666666666668" />
            </Array>
          </mxGeometry>
        </mxCell>
        <mxCell id="ud-DHqLhz_IXkj7XKrdy-367" value="" style="endArrow=none;html=1;rounded=0;fontFamily=YEFONTCaiHongTangTi;fontSize=12;fontColor=default;curved=1;fillColor=#f8cecc;strokeColor=#b85450;" edge="1" parent="1">
          <mxGeometry width="50" height="50" relative="1" as="geometry">
            <mxPoint x="788" y="1018" as="sourcePoint" />
            <mxPoint x="797" y="1018" as="targetPoint" />
            <Array as="points">
              <mxPoint x="793" y="971" />
            </Array>
          </mxGeometry>
        </mxCell>
        <mxCell id="ud-DHqLhz_IXkj7XKrdy-368" value="" style="endArrow=none;html=1;rounded=0;fontFamily=YEFONTCaiHongTangTi;fontSize=12;fontColor=default;curved=1;fillColor=#f8cecc;strokeColor=#b85450;" edge="1" parent="1">
          <mxGeometry width="50" height="50" relative="1" as="geometry">
            <mxPoint x="797" y="1018" as="sourcePoint" />
            <mxPoint x="805" y="1018" as="targetPoint" />
            <Array as="points">
              <mxPoint x="800" y="1066" />
            </Array>
          </mxGeometry>
        </mxCell>
        <mxCell id="ud-DHqLhz_IXkj7XKrdy-369" value="" style="endArrow=none;html=1;rounded=0;fontFamily=YEFONTCaiHongTangTi;fontSize=12;fontColor=default;curved=1;fillColor=#f8cecc;strokeColor=#b85450;" edge="1" parent="1">
          <mxGeometry width="50" height="50" relative="1" as="geometry">
            <mxPoint x="805" y="1018" as="sourcePoint" />
            <mxPoint x="818" y="1018" as="targetPoint" />
            <Array as="points">
              <mxPoint x="812" y="971" />
            </Array>
          </mxGeometry>
        </mxCell>
        <mxCell id="ud-DHqLhz_IXkj7XKrdy-370" value="" style="endArrow=none;html=1;rounded=0;fontFamily=YEFONTCaiHongTangTi;fontSize=12;fontColor=default;curved=1;fillColor=#f8cecc;strokeColor=#b85450;" edge="1" parent="1">
          <mxGeometry width="50" height="50" relative="1" as="geometry">
            <mxPoint x="818" y="1018" as="sourcePoint" />
            <mxPoint x="832" y="1018" as="targetPoint" />
            <Array as="points">
              <mxPoint x="823.1509141274238" y="1065.3666666666668" />
            </Array>
          </mxGeometry>
        </mxCell>
        <mxCell id="ud-DHqLhz_IXkj7XKrdy-371" value="" style="endArrow=classic;html=1;rounded=0;fontFamily=YEFONTCaiHongTangTi;fontSize=12;fontColor=default;movable=1;resizable=1;rotatable=1;deletable=1;editable=1;locked=0;connectable=1;" edge="1" parent="1">
          <mxGeometry width="50" height="50" relative="1" as="geometry">
            <mxPoint x="761" y="1041.9333333333334" as="sourcePoint" />
            <mxPoint x="761" y="985.5656666666666" as="targetPoint" />
          </mxGeometry>
        </mxCell>
        <mxCell id="ud-DHqLhz_IXkj7XKrdy-372" value="" style="endArrow=classic;html=1;rounded=0;fontFamily=YEFONTCaiHongTangTi;fontSize=12;fontColor=default;movable=1;resizable=1;rotatable=1;deletable=1;editable=1;locked=0;connectable=1;" edge="1" parent="1">
          <mxGeometry width="50" height="50" relative="1" as="geometry">
            <mxPoint x="761" y="1018.5" as="sourcePoint" />
            <mxPoint x="843" y="1018" as="targetPoint" />
          </mxGeometry>
        </mxCell>
      </root>
    </mxGraphModel>
  </diagram>
</mxfile>
